<?xml version="1.0" encoding="utf-8"?>
<!-- Generator: Adobe Illustrator 25.1.0, SVG Export Plug-In . SVG Version: 6.00 Build 0)  -->
<svg version="1.1" id="Layer_1" xmlns="http://www.w3.org/2000/svg" xmlns:xlink="http://www.w3.org/1999/xlink" x="0px" y="0px"
	 viewBox="0 0 4000 4000" style="enable-background:new 0 0 4000 4000;" xml:space="preserve">
<style type="text/css">
	.st0{fill:#FFFFFF;}
	.st1{fill:#FF001F;}
	.st2{opacity:0.6;}
	.st3{fill:#B0B0B0;}
	.st4{fill:#232323;}
	.st5{opacity:0.3;}
	.st6{clip-path:url(#SVGID_2_);}
	.st7{fill:#1B5EC9;}
	.st8{fill:#AA19E0;}
	.st9{fill:#EB32AE;}
	.st10{fill:#FA9B24;}
	.st11{fill:#02ACFF;}
	.st12{opacity:0.2;}
	.st13{opacity:0.25;}
	.st14{fill:#ED8100;stroke:#232323;stroke-width:0;stroke-miterlimit:10;}
	.st15{opacity:0.5;}
</style>
<g>
	<g>
		<g>
			<g>
				
					<ellipse transform="matrix(0.7917 -0.611 0.611 0.7917 -921.2006 2679.9412)" class="st0" cx="3468.84" cy="2690.67" rx="30.61" ry="30.61"/>
			</g>
		</g>
		<g>
			<g>
				<circle class="st0" cx="3696.16" cy="2297.9" r="30.61"/>
			</g>
		</g>
		<g>
			<g>
				
					<ellipse transform="matrix(0.9239 -0.3827 0.3827 0.9239 -57.0575 1591.9437)" class="st0" cx="3973.09" cy="939.4" rx="30.61" ry="30.61"/>
			</g>
		</g>
		<g>
			<g>
				<circle class="st0" cx="3735.44" cy="265.2" r="30.61"/>
			</g>
		</g>
		<g>
			<g>
				<circle class="st0" cx="534.58" cy="2894.28" r="45.77"/>
			</g>
		</g>
		<g>
			<g>
				<circle class="st0" cx="475.54" cy="1713.51" r="30.61"/>
			</g>
		</g>
		<g>
			<g>
				
					<ellipse transform="matrix(0.6437 -0.7653 0.7653 0.6437 -438.7163 565.6287)" class="st0" cx="388.04" cy="753.93" rx="30.61" ry="30.61"/>
			</g>
		</g>
		<g>
			<g>
				
					<ellipse transform="matrix(0.9239 -0.3827 0.3827 0.9239 -886.067 202.3906)" class="st0" cx="65.71" cy="2328.47" rx="30.61" ry="30.61"/>
			</g>
		</g>
		<g>
			<g>
				
					<ellipse transform="matrix(0.5681 -0.823 0.823 0.5681 245.0888 872.2318)" class="st0" cx="953.52" cy="202.62" rx="30.61" ry="30.61"/>
			</g>
		</g>
		<g>
			<g>
				
					<ellipse transform="matrix(0.8302 -0.5575 0.5575 0.8302 -1257.1105 2220.5869)" class="st0" cx="3016.68" cy="3173.92" rx="30.61" ry="30.61"/>
			</g>
		</g>
		<g>
			<g>
				<circle class="st0" cx="3072.29" cy="36.58" r="30.61"/>
			</g>
		</g>
		<g>
			<g>
				
					<ellipse transform="matrix(0.8302 -0.5575 0.5575 0.8302 -1689.8457 2390.7908)" class="st0" cx="3079.71" cy="3969.39" rx="30.61" ry="30.61"/>
			</g>
		</g>
		<g>
			<g>
				
					<ellipse transform="matrix(0.2298 -0.9732 0.9732 0.2298 -3345.6182 3450.0361)" class="st0" cx="506.84" cy="3838.7" rx="30.61" ry="30.61"/>
			</g>
		</g>
		<g>
			<g>
				
					<ellipse transform="matrix(0.2298 -0.9732 0.9732 0.2298 -427.5761 1803.4482)" class="st0" cx="925.59" cy="1171.86" rx="30.61" ry="30.61"/>
			</g>
		</g>
		<g>
			<g>
				
					<ellipse transform="matrix(0.7071 -0.7071 0.7071 0.7071 -152.4645 3187.8406)" class="st0" cx="3771.83" cy="1777.96" rx="30.61" ry="30.61"/>
			</g>
		</g>
		<g>
			<g>
				
					<ellipse transform="matrix(0.9239 -0.3827 0.3827 0.9239 -1266.7643 264.1526)" class="st0" cx="30.61" cy="3316.3" rx="30.61" ry="30.61"/>
			</g>
		</g>
		<g>
			<g>
				
					<ellipse transform="matrix(0.8302 -0.5575 0.5575 0.8302 -1359.088 2620.3403)" class="st0" cx="3621.91" cy="3541.2" rx="30.61" ry="30.61"/>
			</g>
		</g>
	</g>
	<g>
		<g>
			<g>
				
					<ellipse transform="matrix(0.1959 -0.9806 0.9806 0.1959 1329.384 2138.8953)" class="st1" cx="1968.9" cy="258.85" rx="102.83" ry="89"/>
			</g>
		</g>
		<g class="st2">
			<g>
				<path class="st0" d="M1908.35,268.14c11.12-55.69,59.22-93.03,107.42-83.41c9.48,1.89,18.23,5.51,26.13,10.45
					c-12.25-18.95-30.57-32.73-52.85-37.18c-48.2-9.63-96.3,27.71-107.42,83.41c-8.94,44.74,8.74,87.66,41.01,107.82
					C1908.37,327.18,1902.36,298.09,1908.35,268.14z"/>
			</g>
		</g>
		<g>
			<g>
				<g>
					<g>
						<g>
							<g>
								<path class="st3" d="M1378.81,2617.2l-134.47,85.5c0,0,14.65,184.1,271.86,215.72l23.76-176.4L1378.81,2617.2z"/>
							</g>
						</g>
						<g>
							<g>
								<path class="st4" d="M1519.07,2922.13l-3.28-0.4c-256.94-31.59-274.63-216.9-274.78-218.76l-0.16-2l138.15-87.83
									l164.53,127.42l-0.26,1.91L1519.07,2922.13z M1247.9,2704.39c2.63,19.67,31.33,180.07,265.43,210.29l23.06-171.22
									l-157.77-122.19L1247.9,2704.39z"/>
							</g>
						</g>
					</g>
				</g>
				<g>
					<g>
						<g>
							<path class="st4" d="M1516.23,2941.79c-0.95,0-1.91-0.06-2.88-0.18c-272.99-33.56-292.15-235.04-292.31-237.07
								c-0.69-8.64,3.45-16.94,10.76-21.59l134.47-85.5c8.32-5.29,19.07-4.8,26.86,1.25l161.15,124.8
								c6.6,5.11,9.98,13.34,8.86,21.61l-23.76,176.41C1537.79,2933.26,1527.77,2941.79,1516.23,2941.79z M1269.92,2714.14
								c8.65,38.46,48.65,147.64,226.26,177.73l18.8-139.63l-137.5-106.49L1269.92,2714.14z"/>
						</g>
					</g>
				</g>
			</g>
			<g>
				<g>
					<g>
						<path class="st3" d="M1570.21,2773.5c0,0-200.14-66.65-233.3-154.22c-33.16-87.56,47.55-560.66,307.38-707.48
							c0,0,185.96,51.7,213.81,150.7S1799.54,2606.67,1570.21,2773.5z"/>
					</g>
				</g>
				<g>
					<g>
						<path class="st4" d="M1570.78,2777.21l-1.63-0.54c-8.23-2.74-202.03-68.17-235.37-156.2
							c-32.83-86.71,46.49-563.32,308.86-711.58l1.21-0.68l1.33,0.37c7.67,2.13,188.09,53.35,216.13,153.02
							c27.6,98.08-55.65,544.74-289.15,714.6L1570.78,2777.21z M1644.72,1915.39c-258.64,147.5-337.06,617.18-304.68,702.7
							c30.65,80.95,210.53,145.08,229.6,151.67c131.6-96.63,205.43-278.31,237.79-378.24c46.81-144.6,60.89-280.39,47.46-328.13
							C1829.08,1971.68,1661.39,1920.29,1644.72,1915.39z"/>
					</g>
				</g>
			</g>
			<g>
				<g>
					<path class="st4" d="M1570.21,2796.88c-2.48,0-4.98-0.4-7.39-1.2c-21.57-7.18-211.73-72.91-247.78-168.12
						c-21.2-55.99-2.1-208.45,43.48-347.1c35.28-107.34,117.84-300.63,274.27-389.02c5.41-3.05,11.81-3.82,17.77-2.17
						c8.11,2.25,198.99,56.49,230.06,166.9c16.83,59.8-3.71,207.52-47.76,343.6c-33.47,103.36-110.3,291.82-248.89,392.64
						C1579.92,2795.35,1575.09,2796.88,1570.21,2796.88z M1647.36,1937.08c-239.25,144.54-318.5,594.9-288.58,673.92
						c22.36,59.05,147.93,114.88,207.34,136.32c217.71-169.12,292.7-595.94,269.48-678.48
						C1816.89,2002.35,1701.13,1953.8,1647.36,1937.08z"/>
				</g>
			</g>
		</g>
		<g class="st5">
			<g>
				<path class="st4" d="M1929.37,2106.1c-27.86-99.01-213.81-150.7-213.81-150.7c-259.83,146.82-340.54,619.92-307.38,707.48
					c2.37,6.26,5.68,12.4,9.63,18.44l-102.2,64.98c0,0,14.65,184.1,271.86,215.72l21.16-157.12c19.86,7.87,32.85,12.21,32.85,12.21
					C1870.81,2650.26,1957.22,2205.1,1929.37,2106.1z"/>
			</g>
		</g>
		<g>
			<g>
				<path class="st3" d="M2077.98,3637.9c0,0-48.02,173.16,8.89,242.52c56.91,69.36,409.07,51.58,528.23-48.02
					c119.16-99.6-11.81-267.6-165.09-240.51C2296.74,3618.97,2209.59,3719.08,2077.98,3637.9z"/>
			</g>
			<g>
				<path class="st4" d="M2266.14,3925.57c-21.95,0-43.08-0.92-62.85-2.78c-42.5-4-97.64-14.22-119-40.25
					c-57.35-69.9-11.51-238.39-9.53-245.53l1.19-4.28l3.78,2.33c86.46,53.33,151.61,27.85,234.11-4.42
					c39.52-15.46,84.33-32.98,135.59-42.04c94.07-16.65,174.81,38.89,203.04,99.56c24.62,52.91,11.45,107.79-35.24,146.81
					C2545.52,3894.91,2392.45,3925.57,2266.14,3925.57z M2080.08,3643.08c-6.82,26.99-40.87,173.99,9.38,235.22
					c15.52,18.92,56.17,32.36,114.46,37.84c132.73,12.49,328.79-19.22,409.04-86.31c44.87-37.51,57.07-88.12,33.46-138.86
					c-27.18-58.41-105-111.84-195.82-95.8c-50.61,8.94-93.16,25.59-134.32,41.69C2236.55,3668.04,2167.54,3695.02,2080.08,3643.08z"
					/>
			</g>
		</g>
		<g class="st2">
			<g>
				<g>
					<path class="st0" d="M2450.02,3591.88c-17.77,3.14-34.61,7.29-50.78,11.99c141.35-3.13,255.27,126.36,208.53,234.3
						c2.52-1.9,4.99-3.82,7.34-5.78C2734.27,3732.8,2603.29,3564.8,2450.02,3591.88z"/>
				</g>
			</g>
		</g>
		<g class="st5">
			<g>
				<path class="st4" d="M2199.27,3815.84c-28.41-34.62-30.67-95.09-25.81-146.99c-30.12-1.08-61.3-9.86-95.48-30.95
					c0,0-48.02,173.16,8.89,242.52c56.91,69.36,409.07,51.58,528.23-48.02c5.29-4.42,9.91-9.01,14.23-13.68
					C2476.31,3871.04,2244.51,3870.98,2199.27,3815.84z"/>
			</g>
		</g>
		<g>
			<g>
				<path class="st4" d="M2265.1,3945.57c-22.25,0-43.65-0.94-63.68-2.82c-67.34-6.33-111.95-22.31-132.62-47.49
					c-62.8-76.54-18.59-244.68-13.35-263.6c1.97-7.09,7.15-12.83,13.99-15.52c6.86-2.68,14.56-1.99,20.81,1.87
					c77.95,48.08,135.97,25.39,216.3-6.03c40.39-15.8,86.18-33.7,139.4-43.11c103.92-18.36,193.32,43.4,224.71,110.84
					c28.69,61.65,13.53,125.44-40.56,170.64C2554.78,3913.29,2395.62,3945.57,2265.1,3945.57z M2093.7,3672.91
					c-11.66,56.66-22.27,151.81,11.25,192.67c9.08,11.06,40.33,24.91,100.84,30.6c128.73,12.1,317.89-17.85,394.31-81.73
					c51.17-42.76,39.6-90.42,28.15-115.03c-24.04-51.65-93.27-98.84-174.16-84.52c-48.65,8.6-90.26,24.87-130.51,40.61
					C2249.26,3684.58,2178.69,3712.2,2093.7,3672.91z"/>
			</g>
		</g>
		<g>
			<g>
				<path class="st0" d="M1205.88,2081.21c0,0-239.76-80.45-339.86-22.41c-100.1,58.04-95.44,242.88,33.75,265.15
					c129.19,22.27,319.94-42.4,319.94-42.4L1205.88,2081.21z"/>
			</g>
		</g>
		<g class="st5">
			<g>
				<path class="st4" d="M1342.58,2267.95l-11.93-172.63c0,0-206.61-69.32-292.86-19.31c-37.17,21.55-57.58,63.4-59.85,105.58
					c-2.46,45.69-47.35,76.6-90.14,60.38c-32.98-12.5-63.54-36.63-77.66-81.72l-21.44,62.61l33.22,72.19l47.6,33.57l87.41,14.03
					l101.9-22.49l25.43-13.35C1194.51,2318.11,1342.58,2267.95,1342.58,2267.95z"/>
			</g>
		</g>
		<g>
			<g>
				<path class="st0" d="M1222.99,2082.62c0,0-66.26-128.82-156.6-123.88c-90.34,4.94-5.16,171.62-5.16,171.62
					s-30.17,24.29-7.95,77.27c22.22,52.99,112.97,46.2,124.09,39.4C1177.36,2247.04,1132.18,2136.12,1222.99,2082.62z"/>
			</g>
		</g>
		<g>
			<g>
				<path class="st4" d="M960.07,2352.01c-22.18,0-43.87-1.49-64.27-5.01c-63.23-10.9-108.07-56.98-119.96-123.28
					c-13.35-74.49,18.91-150.61,78.45-185.14c40.98-23.77,104.67-30.04,189.3-18.67l-6.23,46.35
					c-73.07-9.82-128.27-5.4-159.61,12.78c-47.77,27.7-64.27,89.6-55.87,136.43c3.97,22.13,19.89,74.76,81.87,85.45
					c100.17,17.29,242.65-21.41,291.38-36.13l-12.57-181.96l46.66-3.22l15.08,218.31l-17.06,5.78
					C1220.44,2306,1083.07,2352,960.07,2352.01z"/>
			</g>
		</g>
		<g>
			<g>
				<path class="st4" d="M1192.47,2081.14c-2.88-5.43-6.85-12.06-10.66-17.95c-3.9-6.03-8-11.95-12.29-17.68
					c-8.56-11.48-17.9-22.2-27.91-31.69c-19.94-18.95-43.44-32.25-65.64-31.75c-5.53,0.05-9.7,0.84-11.65,2.04
					c-1.95,1.12-2.76,2.08-3.88,5.34c-1.07,3.16-1.52,8.25-1.26,13.93c0.3,5.73,1.15,12.1,2.18,18.64
					c3.94,26.58,11.32,55.62,12.96,87.93l0.02,0.37c0.24,4.62-3.32,8.56-7.94,8.8c-2.26,0.12-4.37-0.69-5.95-2.07
					c-13.04-11.44-22.57-24.7-30.69-39.09c-4.03-7.19-7.48-14.74-10.4-22.61c-2.98-7.85-5.42-16.04-7.07-24.7
					c-1.6-8.67-2.6-17.69-2.28-27.41c0.4-9.72,1.79-20.25,6.43-31.47c2.35-5.58,5.76-11.2,10.08-16.37c2.25-2.5,4.83-4.8,7.36-7.04
					c2.74-1.9,5.54-3.83,8.4-5.47c11.73-6.29,23.42-7.38,33.2-7.56c19.86-0.4,39.03,5.34,55.31,13.61
					c16.42,8.33,30.41,19.18,42.9,30.86c12.42,11.77,23.39,24.45,33.3,37.72c4.96,6.63,9.67,13.41,14.14,20.35
					c4.54,7.1,8.58,13.68,12.94,21.9c6.05,11.41,1.72,25.56-9.69,31.61c-11.41,6.05-25.56,1.72-31.61-9.69l-0.01-0.01
					L1192.47,2081.14z"/>
			</g>
		</g>
		<g>
			<g>
				<path class="st3" d="M1664.55,1528.08c-15.82-4.33-157.32-40.7-251.26,16.2c-39.52,23.92-65.09,60.84-73.95,106.75
					c-16.9,87.59,24.47,139.79,64.47,190.28c44.9,56.67,91.34,115.26,85.15,243.12c-1.16,24.13,18.9,42.73,44.81,41.55
					c7.47-0.34,14.61-2.29,21.02-5.47c15.83-7.85,27.19-23.19,28.02-40.36c7.6-157.15-52.93-233.54-101.57-294.92
					c-39.06-49.3-59-77.32-49.48-126.68c5.02-26.03,17.97-36.55,27.27-42.19c46.9-28.52,141.89-12.13,171.46-4.13
					c24.16,6.59,51.35-6.88,60.77-30.09C1700.68,1558.91,1688.73,1534.71,1664.55,1528.08z"/>
			</g>
		</g>
		<g class="st5">
			<g>
				<path class="st4" d="M1664.55,1528.08c-12.19-3.34-98.97-25.65-181.13-9.72c-3.94,14.45-6.69,28.68-5.03,36.3
					c4.22,19.32-85.77,18.73-90.41,117.39c-4.64,98.66,85.74,152.82,69.74,186.6c-5.22,11.02-30.4,0.48-59.43-24.31
					c1.84,2.33,3.68,4.65,5.51,6.97c44.9,56.67,91.34,115.27,85.15,243.12c-1.16,24.13,18.9,42.73,44.81,41.55
					c7.47-0.34,14.61-2.29,21.02-5.47c15.83-7.85,27.19-23.19,28.02-40.36c7.6-157.15-52.93-233.54-101.57-294.92
					c-39.06-49.3-59-77.32-49.48-126.68c5.02-26.03,17.97-36.55,27.27-42.19c46.9-28.52,141.89-12.13,171.46-4.13
					c24.16,6.59,51.35-6.88,60.77-30.09C1700.68,1558.91,1688.73,1534.71,1664.55,1528.08z"/>
			</g>
		</g>
		<g>
			<defs>
				<path id="SVGID_1_" d="M1664.55,1528.08c-15.82-4.33-157.32-40.7-251.26,16.2c-39.52,23.92-65.09,60.84-73.95,106.75
					c-16.9,87.59,24.47,139.79,64.47,190.28c44.9,56.67,91.34,115.26,85.15,243.12c-1.16,24.13,18.9,42.73,44.81,41.55
					c7.47-0.34,14.61-2.29,21.02-5.47c15.83-7.85,27.19-23.19,28.02-40.36c7.6-157.15-52.93-233.54-101.57-294.92
					c-39.06-49.3-59-77.32-49.48-126.68c5.02-26.03,17.97-36.55,27.27-42.19c46.9-28.52,141.89-12.13,171.46-4.13
					c24.16,6.59,51.35-6.88,60.77-30.09C1700.68,1558.91,1688.73,1534.71,1664.55,1528.08z"/>
			</defs>
			<clipPath id="SVGID_2_">
				<use xlink:href="#SVGID_1_"  style="overflow:visible;"/>
			</clipPath>
			<g class="st6">
				<g>
					<g>
						<path class="st4" d="M1553.73,1647.7c-4.98,0-9.9-2.22-13.2-6.45c-33.42-42.95-47.52-81.75-41.93-115.3
							c5.3-31.78,26.27-46.3,28.64-47.86c7.71-5.04,18.06-2.88,23.12,4.84c5,7.65,2.92,17.89-4.65,22.99
							c-0.79,0.57-11.67,8.67-14.31,26.4c-3.5,23.51,8.77,54.09,35.49,88.42c5.66,7.28,4.35,17.78-2.93,23.44
							C1560.93,1646.55,1557.32,1647.7,1553.73,1647.7z"/>
					</g>
				</g>
				<g>
					<g>
						<path class="st4" d="M1428.2,1734.11c-86.41,0-138.74-72.77-139.36-73.66c-5.3-7.55-3.48-17.96,4.06-23.27
							c7.54-5.29,17.94-3.49,23.25,4.03l0,0c2.51,3.53,62.52,85.98,158.74,50.8c8.69-3.18,18.26,1.29,21.43,9.95
							c3.17,8.66-1.29,18.26-9.94,21.42C1465.61,1730.96,1446.17,1734.11,1428.2,1734.11z"/>
					</g>
				</g>
				<g>
					<g>
						<path class="st4" d="M1359.63,1877.19c-0.06,0-0.11,0-0.16,0c-9.23-0.05-16.66-7.57-16.61-16.79
							c0.05-9.19,7.52-16.61,16.7-16.61c0.01,0,0.02,0,0.03,0c3.59-0.01,86.66-1.2,135.73-85.68c4.63-7.98,14.86-10.67,22.84-6.06
							c7.97,4.64,10.69,14.86,6.05,22.83C1465.73,1875.56,1365.79,1877.19,1359.63,1877.19z"/>
					</g>
				</g>
			</g>
		</g>
		<g>
			<g>
				<path class="st4" d="M1531.53,2146.08c-17.44,0-33.91-6.57-45.61-18.3c-11.76-11.78-17.78-27.52-16.97-44.31
					c5.81-120.35-36.28-173.47-80.85-229.71c-40.82-51.52-87.09-109.9-68.43-206.53c9.96-51.63,38.75-93.16,83.24-120.1
					c101.11-61.24,250.27-22.95,266.94-18.39l0.01,0c17.29,4.74,31,15.83,38.62,31.25c7.62,15.41,8.1,33.06,1.36,49.67
					c-13.31,32.79-50.46,51.2-84.61,41.9c-33.07-8.95-118.27-20.9-155.78,1.91c-6.97,4.23-14.54,10.97-18,28.87
					c-7.55,39.13,5.71,60.2,45.51,110.43c50.71,64.01,113.84,143.67,105.88,308.34c-1.15,23.98-16.15,45.96-39.14,57.35
					c-9.15,4.54-18.91,7.07-29.01,7.53C1533.63,2146.05,1532.58,2146.08,1531.53,2146.08z M1546.3,1532.55
					c-40.94,0-85.98,6.68-122.63,28.87c-34.53,20.91-56.89,53.21-64.65,93.4c-15.16,78.56,21.59,124.93,60.5,174.04
					c45,56.79,96.01,121.16,89.46,256.54c-0.33,6.89,2.71,11.45,5.32,14.07c4.51,4.52,11.11,6.85,18.57,6.49
					c4.5-0.2,8.89-1.35,13.02-3.4c9.83-4.87,16.46-14.04,16.91-23.37c7.23-149.64-48.29-219.7-97.27-281.51
					c-40.4-50.99-64.6-85.17-53.45-142.92c4.9-25.41,16.85-43.57,36.54-55.53c53.19-32.34,153.1-15.54,187.11-6.35
					c14.46,3.97,31.34-4.44,36.95-18.27c2.38-5.86,2.32-11.84-0.15-16.85c-2.47-5-7.19-8.68-13.28-10.35
					C1650.59,1545.04,1602.28,1532.55,1546.3,1532.55z"/>
			</g>
		</g>
		<g>
			<g>
				<g>
					<path class="st7" d="M1400.12,3374.05c0,0,64.7,184.86-57.47,302.24c-38.5,36.99-95.35,48.18-145.21,29.09
						c-63.76-24.41-154.18-73.62-200.08-165.81c-26.73-53.68-20.97-117.85,14.19-166.42c37.31-51.55,101.8-116.91,201.5-146.07
						C1213.06,3227.07,1374.93,3270.48,1400.12,3374.05z"/>
				</g>
			</g>
			<g>
				<g>
					<path class="st4" d="M1246.98,3717.85c-17.07,0-34.27-3.06-50.72-9.36c-66.79-25.57-156.03-75.37-201.88-167.44
						c-27.27-54.77-21.73-119.86,14.48-169.87c36.81-50.85,101.95-117.69,203.27-147.32l0.9-0.26l0.9,0.24
						c6.68,1.79,163.92,45.08,189.41,149.27c2.21,6.54,62.34,189.61-58.36,305.58C1318.38,3704.25,1282.96,3717.85,1246.98,3717.85z
						 M1213.08,3230.54c-98.98,29.24-162.73,94.7-198.82,144.55c-34.74,48-40.07,110.44-13.91,162.98
						c44.88,90.14,132.6,139.03,198.28,164.18c48.73,18.65,104.35,7.52,141.7-28.38c119.24-114.56,57.27-296.9,56.63-298.73
						l-0.09-0.31C1373.4,3278.32,1225.98,3234.22,1213.08,3230.54z"/>
				</g>
			</g>
		</g>
		<g>
			<g>
				<g>
					<path class="st7" d="M1400.12,3374.05c0,0,64.7,184.86-57.47,302.24c-38.5,36.99-95.35,48.18-145.21,29.09
						c-63.76-24.41-154.18-73.62-200.08-165.81c-26.73-53.68-20.97-117.85,14.19-166.42c37.31-51.55,101.8-116.91,201.5-146.07
						C1213.06,3227.07,1374.93,3270.48,1400.12,3374.05z"/>
				</g>
			</g>
			<g>
				<g>
					<path class="st4" d="M1246.98,3717.85c-17.07,0-34.27-3.06-50.72-9.36c-66.79-25.57-156.03-75.37-201.88-167.44
						c-27.27-54.77-21.73-119.86,14.48-169.87c36.81-50.85,101.95-117.69,203.27-147.32l0.9-0.26l0.9,0.24
						c6.68,1.79,163.92,45.08,189.41,149.27c2.21,6.54,62.34,189.61-58.36,305.58C1318.38,3704.25,1282.96,3717.85,1246.98,3717.85z
						 M1213.08,3230.54c-98.98,29.24-162.73,94.7-198.82,144.55c-34.74,48-40.07,110.44-13.91,162.98
						c44.88,90.14,132.6,139.03,198.28,164.18c48.73,18.65,104.35,7.52,141.7-28.38c119.24-114.56,57.27-296.9,56.63-298.73
						l-0.09-0.31C1373.4,3278.32,1225.98,3234.22,1213.08,3230.54z"/>
				</g>
			</g>
		</g>
		<g>
			<g>
				<g>
					<path class="st3" d="M1400.12,3374.05c0,0,64.7,184.86-57.47,302.24c-38.5,36.99-95.35,48.18-145.21,29.09
						c-63.76-24.41-154.18-73.62-200.08-165.81c-26.73-53.68-20.97-117.85,14.19-166.42c37.31-51.55,101.8-116.91,201.5-146.07
						C1213.06,3227.07,1374.93,3270.48,1400.12,3374.05z"/>
				</g>
			</g>
			<g>
				<g>
					<path class="st4" d="M1246.98,3717.85c-17.07,0-34.27-3.06-50.72-9.36c-66.79-25.57-156.03-75.37-201.88-167.44
						c-27.27-54.77-21.73-119.86,14.48-169.87c36.81-50.85,101.95-117.69,203.27-147.32l0.9-0.26l0.9,0.24
						c6.68,1.79,163.92,45.08,189.41,149.27c2.21,6.54,62.34,189.61-58.36,305.58C1318.38,3704.25,1282.96,3717.85,1246.98,3717.85z
						 M1213.08,3230.54c-98.98,29.24-162.73,94.7-198.82,144.55c-34.74,48-40.07,110.44-13.91,162.98
						c44.88,90.14,132.6,139.03,198.28,164.18c48.73,18.65,104.35,7.52,141.7-28.38c119.24-114.56,57.27-296.9,56.63-298.73
						l-0.09-0.31C1373.4,3278.32,1225.98,3234.22,1213.08,3230.54z"/>
				</g>
			</g>
		</g>
		<g>
			<g class="st2">
				<g>
					<path class="st0" d="M1213.74,3243.72c6.71-3.41,13.56-6.72,20.7-9.79c-3.2-1.13-6.11-2.12-8.69-2.97
						C1221.62,3235.22,1217.62,3239.47,1213.74,3243.72z"/>
				</g>
			</g>
			<g class="st2">
				<g>
					<path class="st0" d="M1292.03,3705.34c0.5,0.36,1,0.73,1.5,1.08c0.64-0.23,1.3-0.39,1.94-0.63
						C1294.32,3705.68,1293.18,3705.48,1292.03,3705.34z"/>
				</g>
			</g>
			<g class="st2">
				<g>
					<path class="st0" d="M1057.07,3553.31c-39-78.32-30.59-171.93,20.71-242.8c5.81-8.03,12.17-16.32,18.9-24.72
						c-37.04,27.94-65.06,59.62-85.13,87.35c-35.16,48.58-40.93,112.74-14.19,166.43c40.13,80.58,114.27,128.32,174.88,155.37
						C1127.29,3658.05,1086.09,3611.57,1057.07,3553.31z"/>
				</g>
			</g>
		</g>
		<g>
			<g>
				<path class="st4" d="M1246.94,3737.89c-19.47,0-39.09-3.49-57.85-10.67c-70.12-26.84-163.93-79.38-212.65-177.22
					c-30.61-61.47-24.41-134.48,16.18-190.56c38.64-53.39,107.12-123.58,213.88-154.8c4.1-1.21,8.48-1.26,12.62-0.14
					c7.13,1.91,174.53,48.04,203.47,162.96c5.98,17.8,64.05,202.93-63.72,325.7C1328.47,3722.34,1288.03,3737.88,1246.94,3737.89z
					 M1213.13,3251.48c-90.37,28.42-149.07,89-182.63,135.37c-30.35,41.93-35.03,96.46-12.2,142.29
					c42.01,84.36,125.16,130.52,187.51,154.4c41.5,15.89,88.86,6.42,120.65-24.11c109.61-105.31,52.18-275.97,51.58-277.69
					c-0.24-0.7-0.46-1.44-0.63-2.16C1358.35,3301.27,1241.42,3260.31,1213.13,3251.48z"/>
			</g>
		</g>
		<g class="st5">
			<g>
				<path class="st4" d="M1255.07,3406.94c-68.63-70.09-60.2-139.23-46.26-178.52c-80.74,24.7-137.97,73.09-176.12,117.9
					c33.24,1.23,66.26,6.06,98.4,14.99c0.33,0.09,0.66,0.18,0.98,0.27c62.19,17.31,100.44,81.36,83.7,143.71
					c-7.43,27.69-22.11,56.6-48.98,82.42c-27.61,26.53-68.39,34.55-104.15,20.86c-8.42-3.22-17.5-7.05-26.9-11.57
					c48.17,56.19,112.76,89.64,161.7,108.37c49.86,19.09,106.71,7.9,145.21-29.09c72.51-69.67,79.19-163.11,72.64-227.56
					C1365.59,3460.24,1305.02,3457.95,1255.07,3406.94z"/>
			</g>
		</g>
		<g>
			<g>
				<path class="st0" d="M1708.69,2365.67c0,0-309.86-2.04-471.28-74.5c-99.74-44.77-114.02-198.88,10.86-236.25
					c257.83-77.16,518.97-126.59,518.97-126.59s165.71,129.49,221.95,141.74C2045.44,2082.33,1975.22,2323.87,1708.69,2365.67z"/>
			</g>
		</g>
		<g>
			<g>
				<path class="st4" d="M1694.63,2384.11c-47.07,0-314.19-3.11-466.8-71.6c-59.47-26.69-96.55-88.22-92.29-153.1
					c3.99-60.77,43.63-108.21,106.02-126.88c256.17-76.66,536.65-126.72,539.45-127.21l8.16,46.05
					c-2.77,0.49-280.69,50.1-534.2,125.97c-43.55,13.03-70.07,44.07-72.77,85.14c-2.94,44.78,23.7,88.93,64.78,107.37
					c154.85,69.5,450.91,67.53,453.99,67.47l0.45,46.77C1700.53,2384.09,1698.22,2384.11,1694.63,2384.11z"/>
			</g>
		</g>
		<g>
			<g>
				<path class="st0" d="M2889.99,1844.2c0,0-91.62,147.93-504.99,246.07c-413.37,98.14-584.32-166.01-584.32-166.01l-144.62,509.98
					l-46.9,209.29c0,0-254.5,346.86-354.09,503.26c-158.12,248.31,37.86,310.7,126.94,315.15
					c89.08,4.45,580.37-435.41,580.37-435.41s49.23,421.57,105.54,594.64c75.72,232.72,316.23,106.81,349.64,19.96
					c33.4-86.85,37.76-777.13,37.76-777.13l153.76-445.4c280.6-135.85,516.59-393.52,516.59-393.52
					C3088.21,1806.83,2889.99,1844.2,2889.99,1844.2z"/>
			</g>
		</g>
		<g class="st5">
			<g>
				<path class="st4" d="M2889.99,1844.2c0,0-91.62,147.93-504.99,246.07c-413.37,98.14-617.76-161.94-617.76-161.94
					s106.44,263.98,480.26,320.89c373.82,56.91,37.35,664.88-103.41,711.64c-140.76,46.77-250.99-28.39-259.34-98.54
					c-8.35-70.15-231.36,171.48-231.36,171.48s-114.38-66.25-171.17,8.91c-56.79,75.16-19.18,151.91,29.66,183.69
					c48.84,31.77-81.44,220.16-190.01,144.34c-74.42-51.97-95.45-120.28-81.44-199.74c-130.51,228.18,55.46,286.63,141.56,290.94
					c89.08,4.45,580.36-435.41,580.36-435.41s3.32,28.37,9.2,73.35c43.83,9.16,145.49,24.96,222.55-5.05
					c100.95-39.31,96.5,103.74,96.5,103.74s-102.44-12.13-158.12,120.61c-55.67,132.74,169.66,138.79,193.95,120.17
					c24.29-18.61,25.05,234.48,0,255.31c-45.43,37.77-121.72,50.01-184.94,34.77c101.53,68.73,250.29-21.36,276.04-88.3
					c33.4-86.85,37.76-777.13,37.76-777.13l153.76-445.4c280.6-135.85,516.59-393.52,516.59-393.52
					C3088.21,1806.83,2889.99,1844.2,2889.99,1844.2z"/>
			</g>
		</g>
		<g>
			<g>
				<path class="st4" d="M2224.75,3777.46c-1.68,0-3.35-0.02-5.02-0.07c-47.3-1.24-132.81-22.26-174.04-148.99
					c-45.74-140.58-86.62-440.83-101.09-554.91c-53.62,47.16-164.17,143.12-273.13,230.02
					c-205.33,163.74-263.19,183.17-290.63,181.78c-65.78-3.29-155.54-32.2-192.05-102.86c-33.14-64.14-17.48-147.65,46.56-248.21
					c93.13-146.25,323.53-461.6,352.06-500.58l63.4-282.91c2.82-12.6,15.29-20.52,27.93-17.71c12.6,2.83,20.53,15.33,17.7,27.93
					l-64.46,287.67c-0.7,3.15-2.06,6.12-3.96,8.72c-2.54,3.46-255.18,348.03-353.22,501.99c-54.45,85.5-69.41,153.34-44.46,201.62
					c29.3,56.7,109.85,75.46,152.84,77.61c6.77,0.26,51.86-6.35,259.13-171.63c118.25-94.31,238.52-199.49,284.75-240.33
					c10.41-9.2,24.92-11.87,37.91-6.96c12.97,4.91,22.09,16.51,23.81,30.29c11.87,95.72,54.29,419.26,101.38,563.98
					c24.67,75.81,68.68,115.08,130.8,116.71c78.92,2.15,159.06-57.05,174.77-97.91c23.38-60.8,34.46-493.13,36.2-768.88
					c0.02-2.55,0.45-5.08,1.28-7.48l153.76-445.39c2.03-5.88,6.32-10.71,11.91-13.42c273.21-132.27,528.88-408.45,531.43-411.22
					c8.75-9.5,23.55-10.13,33.04-1.39c9.51,8.74,10.13,23.53,1.4,33.04c-10.54,11.47-258.87,279.79-536.73,417.38l-149.36,432.64
					c-0.59,87.2-5.88,694.66-39.3,781.53C2416.26,3709.63,2318.3,3777.46,2224.75,3777.46z"/>
			</g>
		</g>
		<g>
			<g>
				<path class="st4" d="M1876.92,2948.02c0.68,0.78,1,1.08,1.44,1.81l1.99,3.03c1.14,1.96,3.03,4.16,4.44,6.15
					c3.22,4.1,6.5,8.1,10.23,11.83c3.38,3.9,7.39,7.34,11.04,10.93c3.78,3.49,7.93,6.63,11.72,9.99
					c16.2,12.5,33.72,22.86,52.93,30.27c4.6,2.25,9.74,3.36,14.6,5.13l7.37,2.54l7.66,1.78c5.12,1.15,10.19,2.68,15.4,3.72
					c5.26,0.85,10.56,1.59,15.86,2.58c2.66,0.44,5.31,1.02,8.01,1.35l8.14,0.73c5.45,0.54,10.92,1.06,16.46,1.83
					c11.08,0.78,22.29,0.95,33.87,2.37l0.74,0.09c3.71,0.46,6.34,3.83,5.89,7.53c-0.33,2.65-2.15,4.75-4.52,5.57
					c-11.2,3.84-22.7,7.27-34.45,9.78c-5.92,1.01-11.89,1.77-17.9,2.55l-9.04,1.09c-3.03,0.2-6.08,0.1-9.13,0.16
					c-6.11,0.09-12.24-0.06-18.4-0.11c-6.13-0.47-12.28-1.44-18.43-2.24l-9.23-1.4l-9.1-2.37l-9.09-2.5
					c-3.05-0.76-6.06-1.68-8.96-3.01c-23.84-8.36-45.98-22.8-63.21-41.6c-8.33-9.71-15.92-19.98-21.27-31.65
					c-2.88-5.64-4.88-11.86-6.75-18c-0.65-3.35-1.5-6.25-1.86-9.82c-0.18-1.76-0.26-3.52-0.36-5.23c-0.03-2.07,0.27-4.66,0.68-6.73
					c0.58-2.96,3.45-4.88,6.41-4.29c1.23,0.24,2.28,0.88,3.04,1.76L1876.92,2948.02z"/>
			</g>
		</g>
		<g>
			<g>
				<ellipse class="st8" cx="3087.17" cy="924.89" rx="361.12" ry="342.91"/>
			</g>
		</g>
		<g class="st2">
			<g>
				<path class="st0" d="M2746.09,971.66c0-189.38,161.68-342.91,361.12-342.91c157.75,0,291.79,96.08,340.97,229.95
					c-32.49-157.7-178.74-276.72-354.33-276.72c-199.44,0-361.12,153.52-361.12,342.91c0,39.59,7.15,77.57,20.15,112.96
					C2748.47,1016.42,2746.09,994.31,2746.09,971.66z"/>
			</g>
		</g>
		<g class="st5">
			<g>
				<path class="st4" d="M3305.79,652.02c25.36,42.28,41.53,90.16,45.92,141.22c-12.28-21.1-31.46-42.72-59.36-45.64
					c-56.39-5.91-53.05,9.68-8.51,48.65c44.54,38.97,47.88,134.73,2.23,136.96c-45.65,2.23-67.92-33.4-96.87,0
					c-28.95,33.4-82.4-37.86-151.44,38.97c-69.04,76.83-121.37,89.08-106.89,55.67c14.48-33.4,17.82-27.84,12.25-53.45
					c-5.57-25.61,42.31-37.86,16.7-65.7c-25.61-27.84-11.14,47.88-55.68,28.95c-44.54-18.93-64.58-15.59-63.47,42.31
					c1.11,57.9-71.12-31.73-31.46-59.71c39.67-27.98,39.67-70.15,29.23-62.63s-36.48,49.33-63.34,38.24
					c-26.86-11.1-43.5-32.05-41.98-38.85c1.52-6.8-34.3,91.85,40.1,237.27c5.38,10.51,12.03,20.14,19.58,29.1
					c65.44,87.37,172.85,144.41,294.36,144.41c199.44,0,361.12-153.52,361.12-342.91C3448.28,813.56,3392.37,714.67,3305.79,652.02z
					"/>
			</g>
		</g>
		<g>
			<g>
				<g>
					<path class="st4" d="M3087.16,1291.18c-212.02,0-384.5-164.32-384.5-366.29s172.48-366.29,384.5-366.29
						c212.02,0,384.5,164.32,384.5,366.29S3299.18,1291.18,3087.16,1291.18z M3087.16,605.37c-186.22,0-337.73,143.34-337.73,319.52
						s151.51,319.52,337.73,319.52c186.22,0,337.73-143.34,337.73-319.52S3273.39,605.37,3087.16,605.37z"/>
				</g>
			</g>
			<g>
				<g>
					<path class="st4" d="M3087.16,1291.18c-212.02,0-384.5-164.32-384.5-366.29s172.48-366.29,384.5-366.29
						c212.02,0,384.5,164.32,384.5,366.29S3299.18,1291.18,3087.16,1291.18z M3087.16,605.37c-186.22,0-337.73,143.34-337.73,319.52
						s151.51,319.52,337.73,319.52c186.22,0,337.73-143.34,337.73-319.52S3273.39,605.37,3087.16,605.37z"/>
				</g>
			</g>
		</g>
		<g>
			<g>
				<path class="st4" d="M2801.71,890.89c12.58-7.95,17.47-19.37,19.81-30.39c1.25-5.58,1.52-11.54,1.68-17.5
					c0.06-5.27-0.28-14.11,1.56-22.39c0.31-2.05,1.25-4.3,1.89-6.42c0.6-2.13,1.65-4.31,2.8-6.45c1.04-2.15,2.41-4.18,4.02-6.12
					c1.46-2.03,3.16-3.81,5.08-5.37c7.54-6.49,15.95-9.22,23.2-10.79c14.76-2.89,27.47-3.18,42.4-4.8
					c-9.6,11.52-23.85,18.49-35.27,24.56c-5.7,3.11-10.3,6.13-12.79,9.31c-2.53,3.07-4.07,6.73-5.24,11.83
					c-0.54,2.6-1.05,5.26-1.22,8.29l-1.24,10.65c-1.3,7.77-3.31,15.65-7.4,22.91c-3.94,7.23-9.6,13.8-16.59,18.13
					C2817.39,890.47,2809.17,892.84,2801.71,890.89z"/>
			</g>
		</g>
		<g>
			<g>
				<path class="st4" d="M2930.87,713.85c13.19-21.03,33.43-37.91,57.7-47.93c12.21-4.85,25.59-7.55,39.18-7.71
					c3.4,0.06,6.8,0.22,10.21,0.38c3.37,0.45,6.73,1.06,10.1,1.61l8.81,1.63c2.66,0.41,5.26,1.24,7.95,1.34
					c10.61,1.65,21.38,1.27,32.79,0.39c11.4-0.81,23.7-2.83,37.34-2.09c13.68,0.54,27.9,6,37.96,14.55
					c10.24,8.53,17.22,19.13,22.97,30.03c-10.22-7.07-19.53-14.69-29.96-18.93c-10.28-4.45-20.21-5.91-30.72-4.64
					c-10.54,1.2-21.98,4.22-34.52,6.24c-12.49,1.98-26.07,2.9-39.37,0.94c-3.36-0.24-6.57-1.23-9.85-1.83l-8.94-1.87l-7.69-1.68
					c-2.61-0.23-5.22-0.46-7.84-0.8c-10.51-0.7-21.28,0.12-32.13,2.41C2973.19,690.75,2951.71,700.79,2930.87,713.85z"/>
			</g>
		</g>
		<g>
			<g>
				<path class="st4" d="M3267.15,740.57c10.81-3.76,21.88-3.41,32.47-1.34c10.58,2.21,20.79,6.64,29.86,13.01
					c9.15,6.22,16.76,15.05,22.05,24.89c5.44,9.79,7.47,21.46,5.82,32.48c-8.91-7.37-15.13-14.05-22.44-19.62
					c-7.02-5.64-13.63-11.01-20.9-15.97l-22.3-15.4C3283.9,753.25,3275.9,747.7,3267.15,740.57z"/>
			</g>
		</g>
		<g>
			<g>
				<path class="st4" d="M3107.92,775.09c10.45-7.16,22.09-10.7,33.91-12.72c11.85-1.87,24.09-1.9,36.21,0.53
					c12.05,2.47,24.22,6.84,34.47,14.89c10.15,7.92,18.23,19.28,19.77,31.82c-11.03-6.4-20.3-10.28-29.89-13.4
					c-9.5-3.17-19.44-4.95-29.45-7.08c-10.06-2.06-20.51-3.78-31.27-5.81C3130.87,781.21,3119.86,778.9,3107.92,775.09z"/>
			</g>
		</g>
		<g>
			<g>
				<path class="st4" d="M2935.33,914.83c1.76,9.18-0.97,19.22-6.85,27.75c-3.01,4.25-7.01,7.81-11.39,10.8
					c-2.22,1.38-4.52,2.81-6.94,3.78l-3.52,1.58c-0.53,0.41-1.06,0.75-1.59,1.04l-0.8,0.42l-0.35,0.55
					c-0.17,0.36-0.63,0.5-0.64,0.85c-0.01,0.34-0.1,0.53-0.25,0.7c-0.01,0.35,0,0.7-0.1,0.97c-0.09,1.56-0.2,4.38,0.35,7.91
					c0.59,3.66,1.24,7.54,2.09,12.14c0.66,4.62,1.53,9.38,1.15,15.85c0.01,1.44-0.35,3.29-0.74,5.09l-0.62,2.67
					c-0.29,0.93-0.77,1.98-1.19,2.95c-0.9,1.97-1.75,3.88-3.39,5.67c-0.74,0.9-1.52,1.77-2.33,2.6l-1.15,1.16l-0.49,0.44
					c-2.71,2.22-5.26,4.66-7.52,7.33c-4.61,5.29-8.29,11.44-10.94,18.29c-5.13,13.78-5.56,30.22-0.72,47.95
					c-14.34-11.58-22.39-32.09-19.77-52.62c1.3-10.22,5.27-20.25,11.22-28.93c2.93-4.39,6.55-8.25,10.33-11.89l0.71-0.68
					c0.11-0.13-0.07-0.07-0.07-0.07c-0.09,0.01-0.15,0.05-0.18,0.12c0.02,0.27-0.1,0.05-0.1,0.05c0-0.04,0.07,0.04,0.09-0.07
					c0-0.19,0.01-0.37,0.03-0.55c0.05-0.34,0.19-0.64,0.15-1.4c0.31-2.3-0.16-6.28-0.6-10.32c-0.4-4.07-1.07-8.85-1.21-13.93
					c-0.06-5.18,0.08-11.31,2.88-18.03c0.84-1.7,1.7-3.38,2.69-4.96c1.24-1.52,2.55-3,3.95-4.35c1.38-1.36,3.02-2.12,4.57-3.11
					l2.36-1.31l2.28-0.73c1.52-0.47,3.04-0.91,4.56-1.27l2.73-0.45c1.83-0.18,3.45-0.74,5.24-1.11c3.36-1.05,6.79-2.33,9.93-4.36
					C2925.64,929.43,2931.25,923.04,2935.33,914.83z"/>
			</g>
		</g>
		<g>
			<g>
				<g>
					<ellipse class="st9" cx="3232.28" cy="1356" rx="361.12" ry="355.98"/>
				</g>
			</g>
			<g>
				<g>
					<path class="st4" d="M3232.28,1715.33c-200.96,0-364.46-161.19-364.46-359.33s163.49-359.33,364.46-359.33
						c200.96,0,364.46,161.19,364.46,359.33S3433.24,1715.33,3232.28,1715.33z M3232.28,1003.36
						c-197.28,0-357.78,158.2-357.78,352.64s160.5,352.64,357.78,352.64c197.28,0,357.78-158.2,357.78-352.64
						S3429.56,1003.36,3232.28,1003.36z"/>
				</g>
			</g>
		</g>
		<g>
			<g>
				<path class="st4" d="M3232.28,1735.37c-212.02,0-384.5-170.18-384.5-379.37s172.48-379.37,384.5-379.37
					c212.02,0,384.5,170.18,384.5,379.37S3444.29,1735.37,3232.28,1735.37z M3232.28,1023.4c-186.22,0-337.73,149.21-337.73,332.6
					s151.51,332.6,337.73,332.6s337.73-149.21,337.73-332.6S3418.5,1023.4,3232.28,1023.4z"/>
			</g>
		</g>
		<g>
			<g>
				<g>
					<ellipse class="st9" cx="3232.28" cy="1356" rx="361.12" ry="355.98"/>
				</g>
			</g>
			<g>
				<g>
					<path class="st4" d="M3232.28,1715.33c-200.96,0-364.46-161.19-364.46-359.33s163.49-359.33,364.46-359.33
						c200.96,0,364.46,161.19,364.46,359.33S3433.24,1715.33,3232.28,1715.33z M3232.28,1003.36
						c-197.28,0-357.78,158.2-357.78,352.64s160.5,352.64,357.78,352.64c197.28,0,357.78-158.2,357.78-352.64
						S3429.56,1003.36,3232.28,1003.36z"/>
				</g>
			</g>
		</g>
		<g>
			<g>
				<path class="st4" d="M3232.28,1735.37c-212.02,0-384.5-170.18-384.5-379.37s172.48-379.37,384.5-379.37
					c212.02,0,384.5,170.18,384.5,379.37S3444.29,1735.37,3232.28,1735.37z M3232.28,1023.4c-186.22,0-337.73,149.21-337.73,332.6
					s151.51,332.6,337.73,332.6s337.73-149.21,337.73-332.6S3418.5,1023.4,3232.28,1023.4z"/>
			</g>
		</g>
		<g class="st2">
			<g>
				<path class="st0" d="M3218.92,1053.46c199.44,0,361.12,159.38,361.12,355.98c0,33.43-4.78,65.73-13.51,96.41
					c21.48-45.56,33.55-96.3,33.55-149.85c0-196.6-161.68-355.98-361.12-355.98c-165.53,0-304.95,109.84-347.61,259.58
					C2948.75,1137.89,3073.8,1053.46,3218.92,1053.46z"/>
			</g>
		</g>
		<g class="st5">
			<g>
				<path class="st4" d="M3297.77,1555.93c-34.56,0-67.89-5.23-99.26-14.92c8.7-7.33,15.68-15.46,20.05-23.34
					c17.66-31.85,20.75-106.78-27.68-105.11c-48.44,1.67-3.34,53.45-81.01,38.27c-72.65-14.2-113.19-83.16-118.13-92.02
					c-19.28-42.38-30.11-89.42-30.11-139.02c0-43.46,8.34-84.94,23.35-123.06c-70.02,64.93-113.81,157.03-113.81,259.28
					c0,196.6,161.68,355.98,361.12,355.98c190.65,0,346.69-145.68,360.08-330.27C3535.16,1485.55,3424.7,1555.93,3297.77,1555.93z
					 M3010.34,1394.16c-6.85-11.26-12.97-23-18.48-35.08L3010.34,1394.16z"/>
			</g>
		</g>
		<g>
			<g>
				<path class="st4" d="M3232.28,1735.37c-212.02,0-384.5-170.18-384.5-379.37s172.48-379.37,384.5-379.37
					c212.02,0,384.5,170.18,384.5,379.37S3444.29,1735.37,3232.28,1735.37z M3232.28,1023.4c-186.22,0-337.73,149.21-337.73,332.6
					s151.51,332.6,337.73,332.6s337.73-149.21,337.73-332.6S3418.5,1023.4,3232.28,1023.4z"/>
			</g>
		</g>
		<g>
			<g>
				<path class="st4" d="M3130.24,1384.15c-12.19-2.96-22.78-5.42-33.26-7.46c-10.4-2-20.4-3.79-30.52-4.72
					c-10.09-0.84-20.26-1.99-30.93-2c-5.39-0.52-10.76-0.03-16.51-0.49c-5.72-0.22-11.48,0.01-17.94-0.9
					c4.33-4.49,9.16-8.5,14.4-11.74c5.35-2.91,10.86-6,16.83-7.63c11.75-4.14,24.57-4.96,37.07-3.79
					c12.55,1.22,24.74,5.5,35.45,11.87C3115.42,1363.76,3124.97,1372.5,3130.24,1384.15z"/>
			</g>
		</g>
		<g>
			<g>
				<path class="st4" d="M1721.29,221.63c4.82-3.2,8.4-5.18,12.57-7.36c4.03-2.14,8.12-4.02,12.22-5.84
					c4.1-1.83,8.31-3.33,12.46-4.98c4.25-1.37,8.47-2.82,12.75-4.09c17.12-4.97,34.99-7.52,52.83-7.44
					c17.8,0.04,35.71,2.39,52.53,7.85c8.59,2.2,16.57,5.95,24.63,9.36c8,3.53,15.33,8.28,22.95,12.38c6.46,3.48,8.88,11.54,5.4,18
					c-3.3,6.14-10.74,8.63-17.02,5.88l-1.93-0.85c-6.91-3.05-13.51-6.8-20.55-9.31c-7.08-2.38-14-5.17-21.3-6.45
					c-14.32-3.64-29.11-4.46-43.64-3.51c-14.55,0.93-28.97,3.99-42.69,9.03l-10.17,4.05c-3.28,1.61-6.64,3.04-9.83,4.75
					c-3.2,1.7-6.38,3.42-9.39,5.31c-2.91,1.74-6.25,4.03-8.08,5.45l-0.39,0.31c-8.75,6.77-21.33,5.16-28.1-3.59
					c-6.77-8.75-5.16-21.33,3.59-28.1C1720.48,222.18,1720.9,221.88,1721.29,221.63z"/>
			</g>
		</g>
		<g>
			<g>
				<path class="st4" d="M1964.21,384.61c-6.67,0-13.37-0.66-20.04-1.99c-60.77-12.14-99.11-77.54-85.48-145.78
					c6.49-32.45,23.67-60.89,48.4-80.09c25.73-19.98,56.49-27.68,86.53-21.67c30.07,6.01,55.49,24.92,71.57,53.25
					c15.45,27.23,20.4,60.09,13.92,92.53c-6.49,32.45-23.67,60.89-48.4,80.09C2010.68,376.5,1987.62,384.61,1964.21,384.61z
					 M1973.78,179.89c-13.15,0-26.35,4.73-38.02,13.8c-15.85,12.31-26.94,30.88-31.21,52.31c-8.59,42.96,13.3,83.67,48.78,90.76
					c16.56,3.3,33.85-1.22,48.7-12.75c15.85-12.31,26.94-30.89,31.21-52.31c4.28-21.43,1.18-42.84-8.72-60.29
					c-9.28-16.35-23.51-27.17-40.06-30.48C1980.92,180.23,1977.35,179.89,1973.78,179.89z"/>
			</g>
		</g>
		<g class="st5">
			<g>
				
					<ellipse transform="matrix(0.1959 -0.9806 0.9806 0.1959 1349.1329 2218.1047)" class="st4" cx="2027.08" cy="286.41" rx="102.83" ry="89"/>
			</g>
		</g>
		<g>
			<g>
				<g>
					<path class="st10" d="M2948.69,1601.46c0,0-82.74,551.18-63.92,571.22s434.71-397.52,434.71-397.52
						S3219.26,1553.02,2948.69,1601.46z"/>
				</g>
			</g>
			<g>
				<g>
					<path class="st4" d="M2886.7,2176.71c-0.03,0-0.05,0-0.08,0c-2.21-0.03-3.55-0.97-4.28-1.75c-18.97-20.2,49.19-481.7,63.04-574
						l0.35-2.37l2.36-0.42c269.93-48.3,373.41,173.37,374.43,175.62l0.95,2.1l-1.62,1.63
						C3281.13,1818.4,2923.22,2176.71,2886.7,2176.71z M2887,2170.07c0.05,0,0.09,0,0.14,0c24.87,0,274.42-241.15,428.3-395.58
						c-11.07-22.13-114.62-213.43-363.8-170.15C2918.94,1822.39,2875.23,2149.71,2887,2170.07z"/>
				</g>
			</g>
		</g>
		<g class="st2">
			<g>
				<path class="st0" d="M2995.45,1608.14c33.41-5.98,64.22-7.82,92.57-6.48c-41.87-8.66-90.33-10.17-146.02-0.2
					c0,0-82.74,551.18-63.92,571.22c3.71,3.95,22.84-9.12,51.13-32.57C2935.07,2010.44,2995.45,1608.14,2995.45,1608.14z"/>
			</g>
		</g>
		<g>
			<g>
				<g>
					<path class="st10" d="M3384.52,1723.94c0,0-23.3,23.15-59.92,59.05c-32.4-55.12-148.31-213.54-391.12-171.61
						c7.94-54.9,13.32-90.65,13.32-90.65C3266.21,1464.09,3384.52,1723.94,3384.52,1723.94z"/>
				</g>
			</g>
			<g>
				<g>
					<path class="st4" d="M3323.89,1788.36l-2.17-3.68c-29.67-50.47-145.23-211.88-387.68-170.01l-4.53,0.78l0.66-4.55
						c7.95-54.91,13.33-90.66,13.33-90.66l0.35-2.37l2.37-0.42c318.24-56.43,440.15,202.49,441.34,205.11l0.97,2.11l-1.65,1.64
						c0,0-23.3,23.16-59.94,59.06L3323.89,1788.36z M3011.44,1601.12c188.59,0,284.28,127.79,313.85,176.51
						c29.21-28.65,49.4-48.65,55.18-54.38c-12.17-24.29-134.5-250.87-430.72-199.64c-1.29,8.54-5.9,39.51-12.31,83.72
						C2963.53,1603.06,2988.21,1601.12,3011.44,1601.12z"/>
				</g>
			</g>
		</g>
		<g class="st5">
			<g>
				<path class="st4" d="M2991.9,1595.87c156.65,14.21,217.04,147.78,217.04,147.78s-225.66,226.57-319.36,303.51
					c-7.16,68.97-10.28,119.68-4.81,125.51c18.82,20.04,434.71-397.52,434.71-397.52S3229.99,1576.9,2991.9,1595.87z"/>
			</g>
		</g>
		<g class="st5">
			<g>
				<path class="st4" d="M3384.52,1723.94c0,0-23.3,23.15-59.92,59.05c-32.4-55.12-148.31-213.54-391.12-171.61
					c7.94-54.9,13.32-90.65,13.32-90.65C3266.21,1464.09,3384.52,1723.94,3384.52,1723.94z"/>
			</g>
		</g>
		<g>
			<g>
				<path class="st4" d="M3324.6,1803.03c-0.87,0-1.75-0.06-2.64-0.17c-6.12-0.81-11.52-4.39-14.64-9.71
					c-36.26-61.69-144.96-200.95-370.43-162.02c-6.31,1.1-12.79-0.91-17.39-5.38s-6.78-10.88-5.86-17.23
					c7.95-54.97,13.34-90.76,13.34-90.76c1.29-8.51,7.85-15.25,16.32-16.75c172.59-30.6,288.28,29.16,354.96,84.7
					c72.19,60.12,103.22,127.12,104.5,129.94c3.47,7.63,1.83,16.61-4.11,22.52c0,0-23.34,23.19-60.02,59.15
					C3334.85,1801,3329.81,1803.03,3324.6,1803.03z M3011.79,1584.37c177.08,0,275.83,108.2,316.38,167.02
					c13.65-13.42,24.51-24.14,31.8-31.35c-26.99-48.65-141.35-220.04-395.51-181.89c-1.64,11.07-4.16,28.08-7.29,49.53
					C2976.16,1585.42,2994.36,1584.37,3011.79,1584.37z"/>
			</g>
		</g>
		<g>
			<g>
				<path class="st4" d="M2887.58,2188.01c-0.42,0-0.82-0.01-1.21-0.01c-6.29-0.09-12.05-2.58-16.21-7.02
					c-9.38-10-18.26-19.44,19.64-309.44c18.14-138.88,38.86-277.09,39.07-278.47l39.64,5.95c-32.69,217.82-64.13,460-66.56,537.49
					c62.54-47.11,243.83-220.75,403.33-380.9l28.41,28.29c-1,1-100.64,100.98-203.35,199.62
					C2923.47,2182.14,2900.53,2188.01,2887.58,2188.01z M2902.78,2159.14L2902.78,2159.14L2902.78,2159.14z"/>
			</g>
		</g>
		<g>
			<g>
				
					<ellipse transform="matrix(0.7868 -0.6172 0.6172 0.7868 -1602.2865 1654.6761)" class="st0" cx="1594.14" cy="3146.79" rx="121.92" ry="158.52"/>
			</g>
		</g>
		<g class="st5">
			<g>
				<path class="st4" d="M1690.07,3071.54c-4.02-5.13-8.28-9.91-12.63-14.51c15.47,52.59,4.87,105.22-32.23,134.32
					c-49.03,38.46-126.95,22.26-181.13-34.97c6.62,22.51,17.94,45.01,34.13,65.66c54.03,68.89,140.79,91.04,193.77,49.48
					C1744.96,3229.96,1744.11,3140.43,1690.07,3071.54z"/>
			</g>
		</g>
		<g>
			<g>
				<path class="st4" d="M1628.74,3315.92c-12.65,0-25.74-1.68-39.04-5.08c-41.57-10.62-80.59-37.03-109.89-74.38
					c-29.3-37.35-45.66-81.55-46.07-124.45c-0.43-45.2,16.66-83.68,48.13-108.36c31.47-24.68,72.92-32.12,116.71-20.93
					c41.57,10.61,80.59,37.03,109.89,74.38c29.3,37.35,45.66,81.54,46.07,124.45c0.43,45.19-16.66,83.68-48.13,108.36l0,0
					C1684.5,3307.1,1657.75,3315.92,1628.74,3315.92z M1559.78,3024.46c-18.69,0-35.56,5.42-49.04,15.99
					c-19.78,15.51-30.52,40.77-30.23,71.12c0.31,32.64,13.13,66.75,36.1,96.03c22.97,29.28,53.04,49.86,84.67,57.94
					c29.41,7.52,56.49,3.1,76.27-12.42l0,0c19.78-15.51,30.52-40.77,30.23-71.12c-0.31-32.64-13.13-66.74-36.1-96.03
					c-22.97-29.28-53.04-49.86-84.67-57.94C1577.65,3025.65,1568.51,3024.46,1559.78,3024.46z"/>
			</g>
		</g>
		<g>
			<g>
				
					<ellipse transform="matrix(0.9977 -0.0682 0.0682 0.9977 -221.5016 163.3259)" class="st0" cx="2279.99" cy="3323.97" rx="158.52" ry="121.92"/>
			</g>
		</g>
		<g class="st5">
			<g>
				<path class="st4" d="M2438.14,3313.15c-4.27-62.49-69.07-109.75-148.39-111.24c31.59,20.09,52.49,49.97,54.85,84.52
					c4.6,67.18-62.49,126.48-149.83,132.45c-6.1,0.42-12.13,0.54-18.09,0.42c29.83,18.96,69.2,29.2,111.62,26.3
					C2375.65,3439.63,2442.74,3380.33,2438.14,3313.15z"/>
			</g>
		</g>
		<g>
			<g>
				<path class="st4" d="M2274.03,3469.48c-41.63,0-81.25-11.28-112.95-32.39c-37.63-25.04-59.85-60.81-62.58-100.71
					c-2.73-39.9,14.42-78.36,48.28-108.29c32.14-28.41,75.92-45.84,123.28-49.08c47.41-3.28,93.12,8.07,128.82,31.84
					c37.63,25.04,59.85,60.81,62.58,100.71c5.46,79.94-71.5,150.54-171.56,157.38C2284.59,3469.3,2279.29,3469.48,2274.03,3469.48z
					 M2286.03,3225.22c-4.23,0-8.48,0.15-12.76,0.44c-37.13,2.54-71.05,15.84-95.51,37.47c-22.73,20.1-34.31,44.98-32.59,70.06
					c1.72,25.09,16.57,48.16,41.83,64.98c27.18,18.09,62.63,26.63,99.72,24.11c74.34-5.09,131.8-53.32,128.1-107.53
					c-1.71-25.08-16.57-48.16-41.83-64.97C2348.94,3233.77,2318.45,3225.22,2286.03,3225.22z"/>
			</g>
		</g>
		<g>
			<g>
				<path class="st0" d="M1641.75,2118.97c-39.62,6.8-78.34-26.17-86.49-73.63c-8.15-47.47,17.36-91.46,56.98-98.26
					c39.62-6.8,93,22.28,101.15,69.75C1721.53,2064.29,1681.36,2112.17,1641.75,2118.97z"/>
			</g>
			<g>
				<path class="st4" d="M1631.15,2143.26c-21.19,0-41.93-7.9-59.61-22.95c-20.5-17.45-34.46-42.67-39.33-71.01
					c-10.32-60.1,23.8-116.29,76.07-125.27c25.53-4.38,54.3,2.13,78.93,17.87c26.83,17.16,44.31,42.36,49.22,70.97
					c10.67,62.13-40.01,120.44-90.73,129.15C1640.85,2142.85,1635.99,2143.26,1631.15,2143.26z M1624.06,1969.48
					c-2.72,0-5.36,0.21-7.87,0.64c-26.84,4.61-43.84,36.58-37.89,71.26c3.02,17.57,11.39,32.95,23.56,43.32
					c10.95,9.33,23.7,13.3,35.93,11.22c28.02-4.81,58.38-41.16,52.55-75.14c-3.59-20.88-19.29-33.7-28.33-39.48
					C1650.17,1973.73,1636.27,1969.48,1624.06,1969.48z"/>
			</g>
		</g>
		<g>
			<g>
				<g>
					<g>
						<path class="st3" d="M2023.75,2160.25c0,0,163.08,134.33,508.88,98.55l-72.03,238.16c-3.38,11.16-10.82,19.84-21.01,24.33
							c-55.46,24.42-247.32,87.04-455.91-97.57c-17.46-15.45-25.15-39.37-19.44-59L2023.75,2160.25z"/>
					</g>
				</g>
				<g>
					<g>
						<path class="st4" d="M2290.33,2554.64c-85.03,0.01-194.61-27.3-308.86-128.42c-18.36-16.25-26.57-41.34-20.43-62.44
							l60.92-209.33l3.91,3.22c1.62,1.33,166.25,133.02,506.41,97.8l5-0.52l-73.48,242.96c-3.67,12.16-11.8,21.55-22.86,26.42
							C2415.99,2535.32,2361.83,2554.64,2290.33,2554.64z M2025.6,2165.83l-58.15,199.81c-5.43,18.67,1.98,41,18.44,55.57
							c207.38,183.52,398.67,120.65,452.36,97.01c9.25-4.07,16.05-11.98,19.16-22.24l70.58-233.36c-38.4,3.81-74.63,5.5-108.57,5.5
							C2178.51,2268.14,2049.28,2183.06,2025.6,2165.83z"/>
					</g>
				</g>
			</g>
			<g>
				<g>
					<path class="st4" d="M2290.08,2574.71c-88.96,0-203.23-28.46-321.9-133.48c-24.05-21.29-34.66-54.66-26.39-83.05l59.51-204.47
						c2.2-7.55,8.04-13.49,15.55-15.81c7.5-2.31,15.65-0.71,21.72,4.26c2.38,1.91,162.05,127.48,491.65,93.37
						c7.88-0.78,15.46,2.34,20.44,8.37c4.98,6.03,6.62,14.16,4.35,21.65l-72.03,238.16c-5.4,17.85-17.46,31.69-33.97,38.96
						C2422.7,2554.27,2365.48,2574.71,2290.08,2574.71z M2037.21,2197.67l-50.52,173.58c-3.2,11.02,2.04,25.72,12.48,34.96
						c198.44,175.63,380.06,116.1,431,93.68c4.88-2.15,7.07-6.46,8.04-9.7l62.01-205.03
						C2247.23,2303.99,2096.14,2233.41,2037.21,2197.67z"/>
				</g>
			</g>
			<g>
				<g>
					<g>
						<path class="st4" d="M2225.67,2451.03c-1.05-0.01-2.13-0.11-3.23-0.3c-110.86-19.08-177.96-62.29-180.76-64.13
							c-10.57-6.9-15.38-20.68-10.75-30.77c4.63-10.08,16.94-12.65,27.5-5.79c1.23,0.79,62.67,39.73,163.02,57
							c11.54,1.99,21.12,13.38,21.39,25.44C2243.09,2443.4,2235.64,2451.12,2225.67,2451.03z"/>
					</g>
				</g>
			</g>
			<g>
				<g>
					
						<ellipse transform="matrix(0.8721 -0.4894 0.4894 0.8721 -901.15 1470.302)" class="st4" cx="2361.54" cy="2458.7" rx="28.6" ry="32.42"/>
				</g>
			</g>
			<g>
				<g>
					<g>
						<path class="st4" d="M2254.72,2366.28c-1.05-0.01-2.13-0.11-3.23-0.3c-110.86-19.08-177.96-62.29-180.76-64.13
							c-10.57-6.9-15.38-20.68-10.74-30.77c4.63-10.08,16.94-12.66,27.5-5.79c1.23,0.79,62.67,39.73,163.02,57
							c11.54,1.99,21.12,13.38,21.39,25.44C2272.13,2358.65,2264.68,2366.38,2254.72,2366.28z"/>
					</g>
				</g>
			</g>
			<g>
				<g>
					
						<ellipse transform="matrix(0.9034 -0.4289 0.4289 0.9034 -784.1707 1249.1996)" class="st4" cx="2379.75" cy="2364.59" rx="27.73" ry="33.43"/>
				</g>
			</g>
		</g>
		<g>
			<g>
				<g>
					<path class="st0" d="M2898.34,1698.89c0,0-55.12,110.24-8.35,145.31c46.77,35.07,87.69-30.9,76.83-103.55
						C2955.96,1668,2905.72,1682.34,2898.34,1698.89z"/>
				</g>
			</g>
			<g class="st5">
				<g>
					<path class="st4" d="M2898.34,1698.89c0,0-55.12,110.24-8.35,145.31c46.77,35.07,87.69-30.9,76.83-103.55
						C2955.96,1668,2905.72,1682.34,2898.34,1698.89z"/>
				</g>
			</g>
			<g>
				<g>
					<path class="st0" d="M3285.83,1853.9c0,0,8.35-64.81-92.98-103.79c-101.33-38.97-153.66-12.25-177.04,72.38
						c-23.38,84.62,14.47,208.23,106.89,212.68C3267.46,2042.13,3285.83,1853.9,3285.83,1853.9z"/>
				</g>
			</g>
			<g class="st2">
				<g>
					<path class="st0" d="M3241.49,1779.28c12.47,22.6,10.19,40.47,10.19,40.47s-18.37,188.23-163.13,181.27
						c-15.62-0.75-29.65-4.97-42.12-11.77c19.08,31.82,48.09,54.41,86.62,56.27c144.75,6.96,163.13-181.27,163.13-181.27
						S3302.18,1817.29,3241.49,1779.28z"/>
				</g>
			</g>
			<g class="st5">
				<g>
					<path class="st4" d="M3091.53,1849.4c19.35-70.03,58.56-100.36,128.92-86.67c-8.16-4.4-17.28-8.64-27.59-12.61
						c-101.33-38.97-153.66-12.25-177.04,72.38c-23.38,84.62,14.48,208.23,106.89,212.68c4.36,0.21,8.59,0.22,12.72,0.09
						C3090,1993.39,3074.49,1911.06,3091.53,1849.4z"/>
				</g>
			</g>
			<g>
				<g>
					<path class="st4" d="M2915.84,1877.29c-13.45,0-27.15-4.83-39.88-14.38c-60.1-45.07-6.03-159.39,1.28-174.11
						c8.42-18.04,31.64-29.25,54.28-26.19c14.51,1.98,49.25,13.21,58.43,74.58c8.36,55.98-10.3,111.36-44.37,131.69
						C2936.15,1874.5,2926.07,1877.29,2915.84,1877.29z M2918.82,1710.21c-18.49,37.57-35.79,99.55-14.81,115.29
						c10.19,7.64,15.2,4.66,17.61,3.22c13.36-7.97,28.47-41.81,22.07-84.61c-3.35-22.39-10.8-32.62-16.68-34.71
						C2923.55,1708.15,2920.21,1709.36,2918.82,1710.21z"/>
				</g>
			</g>
			<g>
				<g>
					<path class="st4" d="M3130.44,2058.74c-2.92,0-5.86-0.07-8.86-0.22c-38.96-1.87-72.66-20.98-97.47-55.24
						c-35.72-49.35-48.12-124.5-30.85-187.02c13.26-48,35.18-79.13,67-95.17c35.61-17.95,81.72-15.59,140.98,7.2
						c112.66,43.33,108.71,119.14,107.85,127.88l0,0C3302.16,1927.29,3255.83,2058.74,3130.44,2058.74z M3113.91,1756.02
						c-12.68,0-23.57,2.27-32.6,6.82c-19.36,9.77-33.42,31.31-42.97,65.87c-13.26,48.01-3.32,109.89,23.64,147.14
						c16.42,22.68,37.22,34.77,61.83,35.96c2.15,0.1,4.29,0.16,6.37,0.16c114.88,0.02,131.7-153.71,132.37-160.37l0.03-0.27
						c0.21-3.04,1.95-48.58-78.13-79.39C3156.89,1761.33,3133.3,1756.02,3113.91,1756.02z"/>
				</g>
			</g>
		</g>
		<g>
			<g>
				<g>
					<g>
						<path class="st9" d="M3361.01,1533.34c0,0-44.39-14-65.71,19.83c-21.32,33.83-0.13,83.48-60.25,73.24
							c-60.11-10.24-79.7-52.07-31.8-97.73c47.9-45.66,20.35-97.9,20.35-97.9"/>
					</g>
				</g>
				<g>
					<g>
						<path class="st4" d="M3361.01,1533.34c-17.32-3.85-36.76-3.1-51.17,7.06c-7.1,5.01-12.55,12.06-16.08,20.01
							c-3.52,7.98-5.35,16.65-6.9,25.44c-1.61,8.79-2.69,17.91-6.47,26.8c-2.09,4.32-4.78,8.75-8.96,11.72l-3.09,2.22l-3.45,1.46
							c-2.29,1.13-4.67,1.59-7.07,1.95c-9.58,1.54-18.94,0.39-27.93-1.43c-9.07-1.55-17.9-4.65-26.41-8.48
							c-8.36-4.18-16.2-9.98-21.98-17.74c-5.82-7.72-8.74-17.74-7.92-27.37c0.61-9.71,4.57-18.65,9.54-26.44
							c4.78-8.05,11.24-14.71,17.77-21.11c12.99-11.89,23.11-27.07,27.13-44.3c4.36-17.13,2.38-35.76-4.43-52.35
							c8.2,16.01,11.06,34.99,7.63,53.03c-3.49,18.09-13.71,34.54-26.76,47.31c-6.04,6.41-12.03,12.96-16.42,20.45
							c-4.56,7.32-7.99,15.48-8.39,23.83c-0.58,8.31,1.93,16.56,6.99,23.15c5.04,6.62,12.07,11.77,19.8,15.55
							c7.83,3.61,16.07,6.66,24.74,8.23c8.54,1.86,17.4,2.94,25.6,1.69c8.28-1.11,15.05-5.97,18.36-13.74
							c3.33-7.71,4.79-16.61,6.71-25.42c1.87-8.83,4.06-17.86,8.12-26.25c4.05-8.35,10.21-15.88,18.07-20.94
							c7.89-5.06,17.14-7.3,26.2-7.83C3343.32,1529.32,3352.43,1530.63,3361.01,1533.34z"/>
					</g>
				</g>
			</g>
			<g>
				<g>
					<path class="st4" d="M3361.01,1533.34c-4.68,0.07-9.19,0.3-13.6,1.05c-4.38,0.57-8.63,1.44-12.6,2.78
						c-7.93,2.64-14.83,6.32-19.53,11.38c-9.58,10.06-11.55,23.06-12.94,40.31c-0.99,8.68-1.14,18.38-5.83,31.03
						c-1.48,3.26-2.96,6.6-5.22,9.89c-2.55,3.32-4.99,6.71-8.62,9.26c-1.72,1.34-3.49,2.63-5.29,3.85c-1.8,0.95-3.64,1.78-5.51,2.61
						c-1.83,0.76-3.85,1.7-5.58,2.15l-5.2,1.17c-13.89,2.58-24.84,0.97-35.21-0.78c-10.3-1.68-20.84-5.26-31.28-9.98
						c-10.31-5.21-20.85-12.68-29.1-23.88c-8.21-11.14-12.64-26.73-11.01-40.53c0.53-3.34,0.86-6.88,1.8-9.96
						c0.96-3.07,1.97-6.11,3.04-9.11c2.57-5.44,5.29-10.98,8.7-15.35c6.36-9.5,14.12-16.54,21.87-23.19
						c3.12-2.83,5.93-4.87,8.87-7.45c2.42-2.73,5.54-5.18,7.68-8.17l3.58-4.39c0.99-1.57,1.96-3.16,3.05-4.74
						c1.17-1.55,1.93-3.27,2.82-4.98c0.86-1.71,1.85-3.42,2.48-5.26c6.29-14.38,8.05-31.93,5.21-50.28
						c6.22,7.06,10.71,15.75,13.7,25.1c3.08,9.36,4.36,19.62,3.56,30c-1.29,20.82-11.86,41.48-25.42,56.62
						c-4.81,6.16-9.51,12.33-12.31,18.37c-1.79,3.01-2.34,5.93-3.51,8.64c-0.2,1.32-0.44,2.59-0.75,3.84
						c-0.27,1.25,0.03,2.27-0.12,3.37c0.24,4.15,1.23,6.83,3.9,10c2.55,3.19,6.89,6.66,12.67,9.41c5.89,2.72,12.43,5.28,19.87,6.73
						c3.72,1.11,6.99,1.38,10.41,2.02c1.82,0.4,2.9,0.13,4.4,0.3c0.7,0.03,1.4,0.09,2.11,0.18c0.48-0.07,0.93-0.13,1.4-0.15
						c0.47-0.02,0.95-0.02,1.45,0.01c0.46,0,0.45-0.18,0.73-0.17c0.21-0.03,0.48,0.01,0.73,0.05c0.02-0.1,0.08-0.12,0.19-0.09
						c0.35,0.27,0.36-0.26,0.86-0.23c0.44-0.27,0.91-1.06,1.56-1.73c2.42-3.95,4.82-12.27,7.35-21.18
						c2.66-8.98,5.87-19.17,11.64-28.84c5.68-9.67,14.38-18.42,24.57-23.49c10.25-5.11,21.28-6.34,31.2-5.22
						C3343.72,1525.37,3352.98,1528.48,3361.01,1533.34z"/>
				</g>
			</g>
		</g>
		<g>
			<g>
				<g>
					<path class="st11" d="M2641.82,434.67c-47.22-7.87-74.77-23.61-118.05-132.81c-43.29-109.2-162.34-151.55-162.34-151.55l0,0.05
						c-60.96-29.34-134.55-35.34-205.37-10.83c-137.63,47.63-212.53,192.18-167.31,322.87c45.23,130.69,193.46,198.02,331.09,150.39
						c7.71-2.67,15.19-5.68,22.49-8.94l0,0.04c61.55,0.02,87.98-49.21,131.27-21.1c43.29,28.11,90.51-10.4,51.16-50.74
						c-39.35-40.33,33.45-78.7,82.64-41.32C2656.58,528.13,2689.04,442.54,2641.82,434.67z"/>
				</g>
			</g>
			<g>
				<g>
					<path class="st4" d="M2229.41,631.5c-38.21,0-76-8.03-111.14-23.99c-63.37-28.79-110.49-79.93-132.67-144.02
						c-22.18-64.08-16.75-133.41,15.27-195.21c32-61.74,86.72-108.59,154.1-131.91c69.24-23.97,142.86-20.15,207.37,10.72l0.21,0.07
						c1.2,0.43,120.98,44.12,164.33,153.46c42.65,107.6,69.15,123.02,115.49,130.74c13.42,2.24,22.57,10.79,25.1,23.46
						c3.24,16.21-4.81,35-18.72,43.7c-7.5,4.69-23.12,10.27-43.38-5.13c-30.41-23.11-68.51-15.31-82.44,0.46
						c-9.43,10.67-7.93,23.41,4.21,35.87c20.65,21.16,18.01,40.88,8.66,52.29c-11.72,14.29-38.14,20.39-64.02,3.59
						c-22.91-14.89-40.78-6.63-63.41,3.83c-17.93,8.29-38.23,17.67-65.41,17.81c-7.57,3.36-14.78,6.21-22.02,8.72
						C2290.95,626.34,2260.05,631.5,2229.41,631.5z M2246.46,127.5c-29.85,0-59.97,5.04-89.31,15.2
						c-65.75,22.75-119.14,68.45-150.35,128.67c-31.17,60.16-36.46,127.62-14.89,189.95c21.57,62.33,67.42,112.09,129.12,140.12
						c61.75,28.05,131.96,30.96,197.72,8.21c7.28-2.52,14.55-5.41,22.22-8.83l4.7-2.1v1.8c24.39-0.73,43.21-9.43,59.89-17.14
						c23.53-10.87,43.85-20.26,69.86-3.37c22.63,14.7,45.33,9.83,55.21-2.22c9.6-11.7,6.43-28.32-8.27-43.38
						c-14.52-14.88-16.18-31.68-4.44-44.96c17.73-20.07,59.65-25.55,91.49-1.35c12.66,9.61,25.36,11.31,35.8,4.79
						c11.48-7.18,18.39-23.32,15.71-36.73c-1.98-9.94-8.96-16.4-19.64-18.18l0,0c-48.87-8.15-76.71-24.11-120.61-134.87
						c-37.52-94.66-133.99-138.88-155.9-147.88v0.42l-4.79-2.25C2324.23,136.17,2285.58,127.5,2246.46,127.5z"/>
				</g>
			</g>
		</g>
		<g class="st2">
			<g>
				<g>
					<path class="st0" d="M2663.4,472.47c4.4-16.3-1.06-34.38-21.58-37.8c-19.11-3.19-34.99-7.66-50-19.1
						C2614.93,454.22,2635.95,466.33,2663.4,472.47z"/>
				</g>
			</g>
			<g>
				<g>
					<path class="st0" d="M2022.16,502.49c-45.23-130.69,29.68-275.24,167.31-322.87c70.82-24.51,144.41-18.51,205.37,10.83l0-0.05
						c0,0,56.95,20.28,106.4,68.91c-52.24-77.79-139.81-109-139.81-109l0,0.05c-60.96-29.34-134.55-35.33-205.37-10.83
						c-137.62,47.63-212.53,192.18-167.31,322.87c12.75,36.84,33.7,68.65,60.28,94.27C2038.04,540.14,2028.93,522.04,2022.16,502.49
						z"/>
				</g>
			</g>
		</g>
		<g class="st5">
			<g>
				<path class="st4" d="M2641.82,434.67c-47.22-7.87-74.76-23.61-118.05-132.81c-43.28-109.2-162.34-151.55-162.34-151.55l0,0.05
					c-3.59-1.73-7.23-3.36-10.91-4.93c0,0,52.3,41.68-11.03,93.48c-1.9,1.73-3.81,3.36-5.74,4.93
					c-54.91,49.51-14.22,89.22,21.4,113.85c36.8,25.44,43.48,37.69,40.14,55.51c-3.34,17.82,77.42,7.79,72.11,41.2
					c-5.3,33.4-32.03,61.24-47.62,41.2c-15.59-20.04-91.3-56.79-114.69,13.36s-128.05,42.31-128.05,42.31s-8.91,41.2-55.67,37.86
					c-10.08-0.72-22.91-1.62-36.82-4.19c65.74,43.45,152.41,56.53,235.3,27.85c7.71-2.67,15.19-5.68,22.49-8.94v0.04
					c61.55,0.02,87.98-49.21,131.26-21.1c43.29,28.11,90.51-10.4,51.16-50.74c-39.35-40.33,33.45-78.7,82.64-41.32
					S2689.04,442.54,2641.82,434.67z"/>
			</g>
		</g>
		<g>
			<g>
				<path class="st4" d="M2229.4,651.55c-41.03,0-81.65-8.63-119.42-25.79c-68.43-31.09-119.33-86.38-143.32-155.71
					c-23.99-69.32-18.16-144.25,16.42-210.98c34.36-66.33,93.08-116.62,165.33-141.63c73.93-25.58,152.58-21.62,221.65,11.13
					c11.87,4.38,130.19,50.5,175.45,164.67c43.15,108.86,67.06,112.85,100.16,118.36c21.78,3.63,37.27,18.32,41.46,39.31
					c4.85,24.35-6.82,51.52-27.75,64.61c-19.93,12.47-44.65,10.16-66.14-6.17c-16.68-12.68-35.69-12-46.9-7.56
					c-6.68,2.65-9.3,6.06-9.44,6.94c-0.03,0.45,0.67,2.98,4.59,6.99c29.91,30.66,23.98,61.71,9.81,78.99
					c-20.25,24.71-59.14,28.02-90.43,7.68c-13.01-8.45-20.94-5.47-44.08,5.22c-17.95,8.3-40.05,18.52-69.45,19.57
					c-6.75,2.89-13.28,5.43-19.84,7.7C2295.37,646.02,2262.25,651.55,2229.4,651.55z M2246.44,147.55
					c-27.64,0-55.55,4.67-82.74,14.08c-60.87,21.07-110.27,63.31-139.11,118.95c-28.62,55.24-33.5,117.09-13.75,174.18
					s61.82,102.7,118.47,128.42c57.05,25.92,121.99,28.59,182.87,7.52c6.73-2.33,13.47-5.01,20.6-8.19c3.43-1.53,7.1-2.22,10.75-2
					c21.04-0.28,37.59-7.93,53.62-15.34c24-11.09,53.89-24.89,89.17-1.99c13.51,8.78,25.17,6.31,28.8,1.88
					c2.88-3.52-1.49-10.91-7.12-16.68c-21.98-22.53-23.98-50.88-5.12-72.23c24.05-27.22,77.46-35.33,118.64-4.04
					c5.7,4.34,10.08,5.59,13.04,3.75c4.41-2.76,7.72-10.6,6.68-15.81c-0.27-1.38-0.37-1.85-3.28-2.33l0,0
					c-57.44-9.57-90.7-33.11-135.95-147.26c-36.69-92.56-136.26-133.42-147.46-137.76c-1.12-0.34-2.21-0.77-3.28-1.29
					C2318.29,155.55,2282.59,147.55,2246.44,147.55z"/>
			</g>
		</g>
		<g>
			<g>
				<g>
					<path class="st4" d="M2345.46,353.76c10.12,1.58,20,5.08,29.32,10.26c9.35,5.08,17.94,12.74,24.01,23.08
						c1.59,2.54,2.48,5.48,3.71,8.28l1.13,4.46l0.54,2.26l0.25,1.08l0.19,0.53c0.94,2.92,2.14,4.44,4.58,5.98
						c4.78,3.24,14.1,5.18,23.67,7.01c9.74,2.17,20.6,3.27,33.2,10.93c6.19,3.76,12.82,11.18,15.23,19.74
						c2.45,8.47,1.64,16.14,0.47,22.32c-2.27,13.09-9.77,26.5-21.27,34.89c-11.38,8.49-25.54,12.75-40.31,10.96
						c-7.32-0.99-14.99-3.45-21.64-8.62c-1.71-1.16-3.29-2.51-4.71-4.13c-1.42-1.58-2.97-3.07-4.13-4.84
						c-1.14-1.79-2.22-3.62-3.24-5.47l-0.7-1.27l-0.16-0.1c-0.09-0.07-0.16-0.15-0.2-0.25c-0.05-1.84-6.71-5.3-14.02-6.26
						c-15.02-2.29-33.61,1.72-44.94,10.84c-2.85,2.28-5.12,4.9-6.94,7.79c-0.48,0.52-1.1,1.8-1.7,2.96l-1.79,3.47
						c-1.19,2.32-2.54,4.6-3.81,6.89c-5.22,9.14-11.26,18.11-18.63,26.16c-7.44,7.9-16.16,15.13-26.33,19.24
						c-10.06,4.23-20.86,5.6-30.98,4.31c9.93-2.42,19-6.54,26.37-12.34c7.42-5.73,13.24-13,17.85-21.09
						c4.73-8,8.51-16.68,11.88-25.69l2.45-6.82l1.19-3.45c0.4-1.14,0.71-2.19,1.5-3.85c2.54-6.15,6.17-11.85,10.64-16.43
						c8.88-9.37,19.83-15.37,31.12-19.12c11.35-3.79,23.24-5.35,35.74-4.33l4.7,0.46l4.82,1.05c3.17,0.57,6.51,1.87,9.8,3.17
						c3.26,1.22,6.69,3.51,9.89,5.61c3.18,2.86,6.46,5.38,8.85,9.51c0.63,0.96,1.24,1.94,1.81,2.93l0.85,1.49
						c0.19,0.31,0.17,0.22,0.26,0.34c0.26,0.3,0.46,0.63,0.6,1c0.18,0.36,0.61,0.5,0.82,0.82c0.18,0.35,0.52,0.6,0.94,0.78
						c1.25,1.12,3.54,1.8,6.08,2.14c2.54,0.57,5.56,0.02,8.42-0.52c2.82-0.9,5.68-1.99,8.02-3.81c5.04-3.24,8.21-8.48,9.94-14.97
						c1-3.59,1.16-6.19,0.96-7.5c-0.33-1.15-0.33-2.06-2.47-3.86c-4.28-3.55-13.56-6.71-23.09-9.74c-4.86-1.55-9.95-3.31-15.27-5.6
						c-5.27-2.33-11-5.18-16.22-10.32c-5.33-4.9-9.05-12.89-9.25-19.95l-0.21-3.56l-0.09-2.97c-0.49-1.91-0.64-3.95-1.31-5.9
						c-2.32-7.94-7.69-15.67-14.58-22.31C2362.44,364.71,2354.3,358.79,2345.46,353.76z"/>
				</g>
			</g>
		</g>
		<g>
			<g>
				<g>
					<path class="st11" d="M2809.45,572.93c0,0-83.51-15.35-91.03-54.6c-7.52-39.25,108.57-30.06,134.45,0
						C2878.77,548.4,2860.4,580.96,2809.45,572.93z"/>
				</g>
			</g>
			<g>
				<g>
					<path class="st4" d="M2824.23,577.49c-4.83,0-9.94-0.41-15.3-1.26l-0.08-0.02c-3.5-0.64-85.85-16.23-93.7-57.25
						c-1.34-7-0.05-16.74,13.69-23.39c31.62-15.27,106.14-3.15,126.57,20.58c12.52,14.54,15.86,30.66,8.93,43.11
						C2857.76,571.07,2843.26,577.49,2824.23,577.49z M2810.02,569.64c23.56,3.7,41.66-1.39,48.48-13.63
						c5.51-9.9,2.47-23.17-8.15-35.5c-18.63-21.63-89.59-32.94-118.6-18.92c-8.08,3.9-11.37,9.18-10.04,16.11
						C2728.65,553.96,2807.92,569.24,2810.02,569.64z"/>
				</g>
			</g>
		</g>
		<g>
			<g>
				<path class="st4" d="M2824.11,594.18c-5.67,0-11.61-0.48-17.78-1.45c-0.16-0.03-0.33-0.06-0.5-0.08
					c-16.2-2.98-97.49-20.37-107.09-70.54c-3.35-17.5,5.18-33.04,22.84-41.57c35.7-17.25,119-7.2,146.49,24.72
					c17.29,20.08,21.35,43.31,10.86,62.13C2869.3,584.69,2849.42,594.18,2824.11,594.18z M2812.83,553.17
					c18.98,2.94,28.99-1.54,31.08-5.29c1.51-2.71,0.2-9.02-6.22-16.47c-7.05-8.19-34.7-17.79-64.61-19.02
					c-18.74-0.77-29.94,2.09-34.34,4.31C2745.01,532.56,2785.46,548.09,2812.83,553.17z"/>
			</g>
		</g>
		<g>
			<g>
				<path class="st4" d="M2308.29,303.9c-4.46-1.7-8.27-4.39-11.69-7.92c-3.36-3.56-6.18-8.19-7.47-13.99
					c-1.45-5.82-0.01-12.65,2.81-18c1.48-2.6,3.16-5.24,5.11-7.1c0.95-1.03,1.93-2.03,2.93-3.02c1.01-0.9,2.04-1.6,3.08-2.41
					c4.09-3.39,8.53-5.45,12.55-7.82c2.79-1.89,5.74-3.3,8.19-5.66c5.2-4.1,9.62-9.29,13.17-14.98c3.73-5.6,6.07-12.05,8.02-18.33
					c1.78-6.42,2.21-12.94,2.11-19.15c-0.45-6.21-2.01-11.91-4.34-17.02c-2.51-5.03-6.19-9.11-10.43-12.99l-1.36-1.24
					c-6.79-6.2-7.27-16.73-1.07-23.53c5.82-6.38,15.53-7.14,22.31-2.08c8.66,6.51,16.28,14.94,21.09,24.9
					c4.58,9.95,6.99,20.6,7.08,31c-0.02,20.73-7.2,40.2-19.47,55.65c-6.16,7.67-13.33,14.73-22.02,19.73
					c-4.11,2.8-8.88,4.58-13.4,6.58c-3.33,1.44-6.69,2.4-9.25,4.04c-0.67,0.38-1.44,0.71-2.05,1.11c-0.52,0.43-1.05,0.83-1.62,1.21
					c-1.33,0.74-1.91,1.61-2.87,2.36c-1.39,1.64-2.9,3.06-3.36,5.59c-1.37,5.03,0.65,13.06,3.8,21l0.05,0.12
					c0.3,0.76-0.07,1.63-0.83,1.93C2309.01,304.04,2308.62,304.03,2308.29,303.9z"/>
			</g>
		</g>
		<g>
			<g>
				<g>
					<circle class="st11" cx="2609.63" cy="661.79" r="35.91"/>
				</g>
			</g>
			<g>
				<g>
					<path class="st4" d="M2609.63,701.04c-21.64,0-39.25-17.61-39.25-39.25c0-21.64,17.61-39.25,39.25-39.25
						s39.25,17.61,39.25,39.25C2648.88,683.43,2631.27,701.04,2609.63,701.04z M2609.63,629.22c-17.96,0-32.57,14.61-32.57,32.57
						c0,17.96,14.61,32.57,32.57,32.57c17.96,0,32.57-14.61,32.57-32.57C2642.2,643.83,2627.59,629.22,2609.63,629.22z"/>
				</g>
			</g>
		</g>
		<g>
			<g>
				<path class="st4" d="M2609.63,714.41c-29.01,0-52.61-23.6-52.61-52.61c0-29.01,23.6-52.61,52.61-52.61
					c29.01,0,52.61,23.6,52.61,52.61C2662.24,690.8,2638.64,714.41,2609.63,714.41z M2609.63,642.59
					c-10.59,0-19.21,8.62-19.21,19.21c0,10.59,8.62,19.21,19.21,19.21s19.21-8.62,19.21-19.21
					C2628.84,651.2,2620.22,642.59,2609.63,642.59z"/>
			</g>
		</g>
		<g>
			<g>
				<path class="st4" d="M3001.08,1227.17c1.35-8.64,4.64-16.63,8.58-24.47c4.12-7.74,9.38-15.1,16.48-21.55
					c7.05-6.29,16.88-11.86,28.71-12.42c2.89-0.51,5.8,0.29,8.72,0.58c3.01,0.25,5.6,1.33,8.28,2.33c1.34,0.49,2.65,1.06,3.97,1.61
					l2.12,0.8c1.2,0.31,2.43,1.32,3.55,1.23c4.39,1.21,8.8,0.63,15.14-1.82c6.23-2.38,13.3-6.47,21.42-9.99
					c8.05-3.49,17.84-6.56,27.74-5.49c9.88,1.12,18.22,6.02,23.94,12.4c-8.7-1.26-16.42-1.67-23,0.69
					c-6.55,2.13-12.15,5.99-18.21,10.62c-6.07,4.65-12.47,10.01-21.04,14.68c-4.31,2.3-9.27,4.26-14.91,5.4
					c-5.66,0.98-11.8,0.85-17.51-0.56c-3.02-0.45-5.3-1.92-7.96-2.92l-3.54-1.57c-0.58-0.22-1.16-0.43-1.72-0.71
					c-1.12-0.53-2.23-1.3-3.37-1.33c-1.14-0.09-2.22-0.85-3.44-0.66c-4.65-0.53-10.53,0.95-16.69,4.15
					C3025.95,1204.79,3013.78,1215.74,3001.08,1227.17z"/>
			</g>
		</g>
		<g>
			<g>
				<path class="st4" d="M3247.1,1093.55c11.59-3.61,23.81-4.58,36.33-3.91c6.24,0.55,12.61,1.46,18.92,3.64
					c6.33,1.94,12.65,5.15,18.36,9.74l4.17,3.68c1.26,1.38,2.44,2.89,3.65,4.36l5.12,6.55c3.12,3.48,6.28,6.11,10.14,8.27
					c7.49,4.29,19.22,7.55,30.68,12.56c11.5,5.01,22.57,11.53,32.52,19.03c9.89,7.32,19.53,16.45,27.01,26.64
					c15.12,20.32,23.93,45.56,21.33,69.78c-8.51-22.4-21.5-41.04-37.14-55.94c-7.92-7.49-16.2-13.8-25.68-19.68
					c-9.3-5.89-18.69-11.04-28.72-15.35c-5-2.23-10.23-4.27-15.8-6.54c-5.54-2.39-11.77-5.03-17.81-9.2
					c-6.04-4.13-11.54-9.65-15.41-15.6l-4.74-8l-1.52-2.74l-2.07-2.52c-5.68-6.86-15.36-12.01-25.69-15.93
					C3270.29,1098.43,3258.91,1095.82,3247.1,1093.55z"/>
			</g>
		</g>
		<g>
			<g>
				<path class="st4" d="M3475.37,1336.29c2.24,23.37,9.93,45.62,25.04,57.18c1.68,1.64,3.87,2.7,5.79,4
					c0.76,0.45,2.38,1.62,3.9,2.73l4.5,3.37c5.55,5.21,10.59,11.95,12.76,19.6c1.55,3.76,1.71,7.55,2.33,11.37
					c0.01,3.65,0.3,7.52-0.26,10.99c-0.69,7.21-2.78,13.7-5.05,20.01c-5.01,12.4-11.92,23.23-20.87,32.99
					c-2.25,2.41-4.76,4.79-7.48,7.08c-0.84,0.8-1.01,1.06-1.69,1.52c-0.58,0.48-1.13,1.43-1.74,2.11
					c-2.32,3.37-4.65,7.97-6.66,13.03c-4.15,10.07-7.81,21.45-13.03,32.4c-2.89,5.43-5.62,10.96-9.73,15.83
					c-4.01,4.82-9.06,9.12-14.89,10.75c8.32-8.66,10.21-19.58,12.12-30.57c1.76-11.14,2.83-22.5,5.44-34.59
					c1.31-6.02,3.09-12.34,6.55-19c1.03-1.7,1.82-3.36,3.14-5.07c1.3-1.65,3.05-3.55,4.23-4.82c1.56-1.61,3.11-3.36,4.64-5.35
					c6.1-7.82,11.53-16.98,15.1-26.09c1.73-4.53,3.25-9.16,3.76-13.49c0.55-2.23,0.32-4.22,0.57-6.33c-0.34-1.87-0.12-4-0.75-5.67
					c-0.51-3.75-2.63-6.63-4.85-9.86l-2.23-2.13c-0.72-0.73-1.33-1.39-2.87-2.7c-2.57-2.35-5.28-4.48-7.43-7.23
					c-9.21-10.42-14.17-23.5-15.32-36.05C3469.26,1359.73,3470.76,1347.37,3475.37,1336.29z"/>
			</g>
		</g>
		<g>
			<g>
				<path class="st4" d="M2230.15,449.09c-0.61,10.98-3.41,21.84-9.84,31.88c-3.18,5-7.86,9.53-13.64,12.5
					c-2.79,1.7-6.01,2.51-9.13,3.4l-8.58,1.26c-4.5,0.56-8.8,1.76-11.86,3.68c-3.14,1.9-4.75,4.15-4.95,6.08
					c-0.29,1.91,0.18,4.31,1.91,7.14c0.9,1.39,1.95,2.8,3.28,4.18c0.55,0.72,1.34,1.37,2.08,2.05c0.75,0.7,1.18,1.02,3.14,3.05
					c6.48,6.73,8.59,16.04,8.28,23.49c-0.19,7.71-2.36,14.46-5.34,20.55c-5.98,12.15-15.41,21.77-26.53,28.44
					c-11.1,6.67-23.92,10.43-36.51,10.84c-6.3,0.37-12.55-0.18-18.56-1.27c-6.07-0.95-11.84-2.69-17.44-4.74
					c-6.94-2.54-10.49-10.22-7.95-17.16c2.36-6.46,9.19-9.99,15.71-8.4l0.31,0.08c17.89,4.35,35.58,3.59,49.81-4.38
					c7.04-3.9,13.26-9.59,17.15-16.08c1.88-3.22,3.33-6.62,3.7-9.47c0.45-2.94,0.07-4.79-0.64-5.91c0.21,0.06-1.2-1.51-2.27-2.7
					c-1.09-1.23-2.18-2.42-3.14-3.87c-2.02-2.68-3.76-5.77-5.23-9.07c-2.88-6.56-4.18-15.34-1-23.47
					c3.06-8.25,10.11-13.48,16.45-15.91c6.5-2.62,12.82-3.16,18.79-3.07l7.18,0.16c1.95-0.26,4.07-0.28,5.94-1.09
					c3.88-1.21,7.64-3.54,10.9-6.87c6.58-6.6,11.2-16.17,14.2-25.85l0.05-0.16c0.31-1.01,1.38-1.57,2.39-1.26
					C2229.66,447.43,2230.2,448.24,2230.15,449.09z"/>
			</g>
		</g>
		<g>
			<g>
				<g>
					<path class="st3" d="M1143.04,3370.74c0,0,177.35,3.66,191.98,182.84"/>
				</g>
			</g>
			<g>
				<g>
					<path class="st4" d="M1143.2,3362.94c13.39-3.14,26.23-3.61,39.4-2.87c13.08,0.83,26.15,3.09,38.93,6.85
						c25.53,7.48,49.98,21.06,70.14,39.89c10.01,9.47,18.88,20.18,26.39,31.68c7.55,11.51,13.19,24.05,17.66,36.74
						c8.38,25.63,10.8,52.33,7.06,77.71c-0.64,4.37-4.71,7.39-9.08,6.75c-3.08-0.45-5.48-2.6-6.42-5.35l-0.04-0.13
						c-7.76-23.07-16.16-44.4-26.94-63.51c-10.95-19-24.2-35.53-39.97-49.55c-15.96-13.81-34.05-25.37-53.86-35.43
						c-19.69-10.14-41.4-18.71-63.6-27.19l-0.71-0.27c-4.14-1.58-6.21-6.22-4.63-10.36
						C1138.51,3365.33,1140.72,3363.54,1143.2,3362.94z"/>
				</g>
			</g>
		</g>
		<g class="st12">
			<g>
				<path class="st0" d="M3219.72,1138.06c0,0,49.4-17.8,81.36,22.33c31.96,40.14,57.94,24.16,72.55,41.59
					c14.61,17.43,26.24,61.02,8.8,65.38c-17.43,4.36-24.7-24.7-59.56-29.06c-34.87-4.36-30.51-24.16-62.47-50.58
					C3228.43,1161.3,3193.57,1167.11,3219.72,1138.06z"/>
			</g>
		</g>
		<g class="st12">
			<g>
				<path class="st0" d="M3436.5,1314.1c0,0-7.08-45.04-34.62-31.77c-27.54,13.28-21.7,104.59,13.26,110.07
					C3450.09,1397.88,3438.95,1324.05,3436.5,1314.1z"/>
			</g>
		</g>
		<g class="st13">
			<g>
				<path class="st0" d="M3006.31,901.47c0,0,6.4-57.07,50.39-65.7c43.98-8.63,54,7.24,82.4-6.12
					c28.39-13.36,101.82,5.85,92.67,32.57c-9.16,26.72-59.26-11.69-91,14.2c-31.73,25.89-52.61-0.84-89.36,38.42
					C3014.66,954.08,3001.86,920.29,3006.31,901.47z"/>
			</g>
		</g>
		<g class="st13">
			<g>
				<path class="st0" d="M3262.69,858.88c0,0-15.31,3.34-6.12,24.22c9.19,20.88,36.47,31.46,44.26,18.09
					C3308.62,887.83,3284.96,858.05,3262.69,858.88z"/>
			</g>
		</g>
		<g>
			<g>
				<g>
					<g>
						
							<ellipse transform="matrix(0.9946 -0.1033 0.1033 0.9946 -140.7389 242.7729)" class="st0" cx="2273.41" cy="1480.11" rx="657.08" ry="630.8"/>
					</g>
				</g>
				<g>
					<g>
						<path class="st4" d="M2266.64,2114.62c-149.85,0-293.72-48.64-411.34-140.21c-136.48-106.25-221.27-257.56-238.77-426.07
							c-17.5-168.5,34.39-334.01,146.11-466.04c111.7-131.99,269.83-214.71,445.26-232.94c175.48-18.21,347.19,30.24,483.62,136.46
							c136.48,106.25,221.27,257.56,238.77,426.07c36.13,347.79-229.17,661.35-591.37,698.98
							C2314.73,2113.37,2290.61,2114.62,2266.64,2114.62z M2280.18,852.29c-23.74,0-47.62,1.23-71.59,3.72
							c-173.71,18.04-330.28,99.94-440.85,230.6c-110.54,130.62-161.88,294.36-144.57,461.03
							c17.32,166.68,101.21,316.37,236.23,421.49c135.07,105.15,305.12,153.13,478.83,135.08
							c358.55-37.24,621.16-347.51,585.42-691.64c-17.32-166.68-101.21-316.37-236.23-421.49
							C2570.99,900.44,2428.54,852.29,2280.18,852.29z"/>
					</g>
				</g>
			</g>
			<g class="st5">
				<g>
					<path class="st4" d="M2510.4,1974.41c-30.65,3.18-60.93,4.05-90.69,2.88c-295.18,10.3-548.98-186.18-576.94-455.36
						c-5.84-56.18-1.36-111.28,11.97-163.78c-78.62-53.84-105.13-119.57-105.86-182.88c-64.56,108.54-95.91,236.5-82.07,369.79
						c32.17,309.67,297.04,541.13,611.65,552.02c15.42-0.54,30.94-1.58,46.53-3.2c149.95-15.58,282.69-79.38,383.27-173.53
						C2647.91,1948.24,2581.3,1967.04,2510.4,1974.41z"/>
				</g>
			</g>
			<g>
				<g>
					<path class="st4" d="M2266.62,2134.66c-154.29,0-302.46-50.11-423.63-144.44c-140.82-109.63-228.33-265.83-246.4-439.81
						c-18.07-173.98,35.47-344.82,150.75-481.06c115.06-135.96,277.89-221.16,458.49-239.92c180.61-18.75,357.47,31.17,498,140.58
						c140.82,109.63,228.33,265.83,246.4,439.81c37.26,358.78-236.04,682.21-609.24,720.98
						C2316.1,2133.38,2291.28,2134.66,2266.62,2134.66z M2280.15,872.33c-23.04,0-46.23,1.2-69.49,3.61
						c-168.54,17.5-320.4,96.92-427.62,223.62c-106.99,126.42-156.68,284.82-139.93,446.01c16.74,161.2,97.93,306.01,228.61,407.74
						c130.96,101.96,295.92,148.47,464.45,130.96c347.55-36.1,602.15-336.49,567.55-669.63c-16.74-161.2-97.93-306-228.61-407.74
						C2562.22,919.02,2424.08,872.33,2280.15,872.33z"/>
				</g>
			</g>
			<g>
				<g>
					
						<ellipse transform="matrix(0.9907 -0.1358 0.1358 0.9907 -183.8183 337.7914)" class="st14" cx="2383.65" cy="1516.04" rx="566.89" ry="512.38"/>
				</g>
			</g>
			<g class="st5">
				<g>
					<path class="st4" d="M2600.76,1840.25c-309.31,48.25-593.8-139.57-635.44-419.51c-14.7-98.83,2.96-195.87,45.4-282.27
						c-138.99,114.35-216.54,286.08-190.16,463.46c41.64,279.94,326.13,467.76,635.44,419.51
						c200.12-31.22,361.47-153.65,439.26-311.97C2814.91,1775.58,2714.07,1822.57,2600.76,1840.25z"/>
				</g>
			</g>
			<g>
				<g>
					<path class="st4" d="M2368.59,2052.85c-141.94,0-279.19-46.88-384.58-132.87c-107.83-87.99-174.37-209.62-187.36-342.51
						c-28.73-293.97,211.13-560.75,534.71-594.7c165.21-17.32,329.95,29.81,451.94,129.35c107.83,87.99,174.37,209.62,187.36,342.51
						v0c28.73,293.97-211.13,560.75-534.71,594.7C2413.46,2051.68,2390.95,2052.85,2368.59,2052.85z M2398.81,1026
						c-20.78,0-41.67,1.08-62.57,3.28c-298.11,31.28-519.29,275.15-493.05,543.64c11.77,120.39,72.28,230.78,170.38,310.82
						c112.4,91.71,264.58,135.12,417.49,119.07c298.11-31.28,519.29-275.15,493.04-543.64c-11.77-120.39-72.28-230.78-170.38-310.82
						C2656.69,1069.17,2530.02,1026,2398.81,1026z"/>
				</g>
			</g>
			<g>
				<g>
					<g>
						<path class="st3" d="M2852.11,1819.76c-7.47-8.11-19.89-9.18-28.64-2.48c-92.02,70.47-207.04,114.43-332.61,127.16
							c-303.08,30.72-568.99-135.12-592.75-369.64c-23.76-234.52,203.48-450.3,506.56-481.01
							c144.82-14.67,285.95,14.82,397.42,83.04c9.33,5.71,21.46,3.44,28.09-5.26c6.62-8.7,5.6-21-2.38-28.48
							c-126.61-118.66-304.86-176.02-489.07-157.35c-158.12,16.02-301.33,86.08-403.22,197.27
							c-102.52,111.87-151.04,251.93-136.61,394.36c24.94,246.23,233.98,434.84,494.32,469.16c49.51,6.53,100.9,7.47,153.21,2.17
							c159.64-16.18,303.76-87.27,405.83-200.18C2859.64,1840.33,2859.59,1827.87,2852.11,1819.76z"/>
					</g>
				</g>
				<g>
					<g>
						<path class="st4" d="M2378.89,2055.46c-28.91,0-57.69-1.87-86.11-5.62c-268.17-35.35-472.62-229.5-497.2-472.13
							c-14.53-143.39,34.29-284.36,137.47-396.95c102.45-111.8,246.4-182.23,405.34-198.34c185.12-18.76,364.39,38.91,491.69,158.23
							c9.26,8.68,10.45,22.84,2.75,32.94c-7.69,10.09-21.64,12.73-32.48,6.08c-110.85-67.84-251.28-97.16-395.34-82.57
							c-145.85,14.78-278.64,72.73-373.88,163.17c-95.02,90.23-141.08,201.8-129.7,314.18c11.39,112.38,78.89,212.45,190.07,281.79
							c111.46,69.5,253.18,99.64,399.02,84.86c124.96-12.66,239.39-56.39,330.92-126.48c10.18-7.81,24.42-6.58,33.12,2.87
							c8.7,9.43,8.78,23.73,0.17,33.25c-102.62,113.53-247.51,185.01-407.97,201.27
							C2424.15,2054.31,2401.48,2055.46,2378.89,2055.46z M2407.04,985.62c-22.51,0-45.19,1.14-67.97,3.45
							c-157.31,15.93-299.75,85.61-401.1,196.2c-101.87,111.16-150.08,250.29-135.75,391.76
							c24.26,239.53,226.35,431.24,491.43,466.18c50.1,6.61,101.39,7.34,152.43,2.16c158.82-16.09,302.18-86.8,403.69-199.1
							c6.28-6.94,6.22-17.37-0.12-24.24l0,0c-6.34-6.88-16.72-7.78-24.16-2.09c-92.51,70.84-208.11,115.05-334.3,127.83
							c-147.31,14.94-290.51-15.55-403.22-85.84c-112.98-70.45-181.59-172.3-193.19-286.78c-11.6-114.48,35.19-228.02,131.73-319.7
							c96.32-91.46,230.5-150.05,377.81-164.98c145.56-14.73,287.42,14.91,399.51,83.52c7.89,4.82,18.07,2.93,23.69-4.44
							c5.61-7.36,4.75-17.69-2.01-24.02C2715.27,1042.2,2565.59,985.62,2407.04,985.62z"/>
					</g>
				</g>
			</g>
			<g class="st5">
				<g>
					<path class="st4" d="M2841.44,1813.24c-7.32-7.94-19.47-8.99-28.04-2.42c-90.07,68.98-202.66,112.02-325.58,124.47
						c-296.68,30.07-556.96-132.26-580.22-361.82c-6.67-65.81,6.89-130.11,36.57-189.07c-33.79-16.86-61.26-42.31-84.7-72.04
						c-41.07,82.16-58.22,172.39-48.98,263.62c24.42,241.02,229.03,425.65,483.87,459.24c48.46,6.39,98.76,7.32,149.97,2.13
						c156.26-15.83,297.34-85.42,397.25-195.95C2848.82,1833.37,2848.76,1821.17,2841.44,1813.24z"/>
				</g>
			</g>
			<g>
				<g>
					<path class="st4" d="M2378.89,2075.5c-29.78,0-59.44-1.93-88.73-5.79c-277.42-36.57-489-238.06-514.52-489.99
						c-15.11-149.15,35.54-295.65,142.64-412.51c105.78-115.43,254.26-188.14,418.1-204.73c191-19.35,375.88,40.27,507.42,163.55
						c16.79,15.73,18.94,41.4,4.99,59.71c-13.95,18.3-39.27,23.05-58.9,11.03c-107.14-65.57-243.08-93.9-382.86-79.72
						c-141.45,14.33-270.06,70.36-362.1,157.77c-90.42,85.86-134.3,191.56-123.55,297.62c10.75,106.07,74.93,200.82,180.74,266.8
						c107.7,67.17,244.9,96.28,386.39,81.93c121.26-12.29,232.18-54.63,320.75-122.46c18.46-14.14,44.27-11.92,60.04,5.19h0.01
						c15.77,17.1,15.9,43.01,0.3,60.28c-105.96,117.23-255.4,191.01-420.82,207.77C2425.5,2074.32,2402.16,2075.5,2378.89,2075.5z
						 M2407.05,1005.66c-21.84,0-43.85,1.11-65.96,3.35c-152.4,15.44-290.32,82.84-388.34,189.8
						c-97.96,106.89-144.33,240.49-130.58,376.2c23.32,230.25,218.29,414.61,474.1,448.33c48.57,6.4,98.28,7.11,147.8,2.09
						c145.93-14.79,278.32-77.08,375.33-176.12c-92.21,65.25-204.47,106.07-326.19,118.4c-151.67,15.37-299.39-16.15-415.85-88.78
						c-118.36-73.81-190.28-180.98-202.52-301.77c-12.23-120.79,36.73-240.2,137.88-336.26c99.52-94.5,237.88-155.01,389.59-170.38
						c142.45-14.44,281.66,12.56,394.53,76.11C2691.93,1055.39,2553.45,1005.66,2407.05,1005.66z"/>
				</g>
			</g>
			<g>
				<g>
					<g>
						<g>
							
								<ellipse transform="matrix(0.9732 -0.23 0.23 0.9732 -347.2048 446.3417)" class="st0" cx="1741.12" cy="1712.62" rx="145.93" ry="170.58"/>
						</g>
					</g>
					<g>
						<g>
							<path class="st4" d="M1751.12,1885.38c-29.31,0-58.55-9.88-84.65-28.95c-34.87-25.48-59.95-64.37-70.61-109.48
								c-22.06-93.33,25.16-184.66,105.26-203.6c38.91-9.17,79.62-0.15,114.65,25.45c34.88,25.48,59.96,64.37,70.61,109.49
								c10.67,45.12,5.64,91.11-14.13,129.51c-19.87,38.58-52.23,64.88-91.13,74.08C1771.2,1884.22,1761.15,1885.38,1751.12,1885.38
								z M1731.09,1546.54c-9.52,0-19.03,1.1-28.43,3.32c-76.52,18.08-121.51,105.81-100.31,195.55
								c10.3,43.57,34.47,81.08,68.06,105.63c33.43,24.43,72.2,33.08,109.17,24.34c36.97-8.74,67.78-33.82,86.73-70.63
								c19.05-36.99,23.87-81.35,13.58-124.92v0c-10.3-43.57-34.46-81.08-68.06-105.63C1786.9,1555.98,1759,1546.54,1731.09,1546.54
								z"/>
						</g>
					</g>
				</g>
				<g>
					<g>
						<path class="st4" d="M1751.03,1905.44c-33.49,0-66.79-11.2-96.38-32.83c-38.73-28.3-66.54-71.29-78.3-121.06
							c-24.6-104.09,29.31-206.24,120.17-227.71c44.7-10.56,91.26-0.34,131.09,28.77c38.73,28.3,66.54,71.3,78.29,121.06v0
							c11.76,49.76,6.14,100.65-15.82,143.3c-22.59,43.87-59.65,73.84-104.34,84.41C1774.24,1904.1,1762.62,1905.44,1751.03,1905.44
							z M1731.01,1566.6c-7.96,0-15.91,0.91-23.74,2.77c-65.76,15.54-104.07,92.45-85.4,171.44c9.2,38.92,30.64,72.33,60.38,94.05
							c28.62,20.92,61.55,28.39,92.74,21.02c31.17-7.37,57.28-28.78,73.52-60.3c16.87-32.74,21.09-72.21,11.89-111.13v0
							c-9.19-38.92-30.64-72.33-60.37-94.05C1778.58,1574.72,1754.72,1566.6,1731.01,1566.6z"/>
					</g>
				</g>
			</g>
			<g>
				<g>
					<g>
						
							<ellipse transform="matrix(0.9732 -0.23 0.23 0.9732 -350.3052 441.2665)" class="st0" cx="1717.8" cy="1723.38" rx="72.88" ry="85.19"/>
					</g>
				</g>
				<g>
					<g>
						<path class="st4" d="M1722.79,1811.34c-14.99,0-29.93-5.04-43.26-14.78c-17.74-12.96-30.49-32.73-35.9-55.65
							c-5.42-22.92-2.86-46.3,7.2-65.83c10.15-19.71,26.7-33.15,46.61-37.86c19.93-4.7,40.73-0.09,58.63,12.99
							c17.74,12.96,30.49,32.72,35.9,55.65c5.42,22.92,2.86,46.3-7.2,65.83c-10.15,19.71-26.7,33.15-46.62,37.86
							C1733.08,1810.74,1727.93,1811.34,1722.79,1811.34z M1712.79,1642.11c-4.63,0-9.24,0.54-13.81,1.61
							c-17.98,4.25-32.97,16.47-42.21,34.41c-9.33,18.12-11.69,39.87-6.64,61.24c5.05,21.37,16.89,39.76,33.35,51.79
							c16.3,11.91,35.19,16.13,53.15,11.88c17.98-4.25,32.97-16.47,42.21-34.41c9.34-18.12,11.69-39.86,6.64-61.23v0
							c-5.05-21.37-16.89-39.76-33.35-51.79C1739.97,1646.72,1726.37,1642.11,1712.79,1642.11z"/>
					</g>
				</g>
			</g>
			<g>
				<g>
					<path class="st4" d="M1722.71,1828.05c-18.47,0-36.79-6.14-53.03-18.01c-20.96-15.31-35.98-38.5-42.31-65.29
						c-6.33-26.79-3.28-54.25,8.61-77.32c12.42-24.11,32.88-40.62,57.62-46.46c24.73-5.85,50.42-0.25,72.32,15.75
						c20.96,15.31,35.98,38.5,42.31,65.29c6.33,26.79,3.28,54.25-8.61,77.32c-12.42,24.12-32.89,40.62-57.62,46.46
						C1735.61,1827.31,1729.15,1828.05,1722.71,1828.05z M1712.72,1658.83c-3.33,0-6.64,0.38-9.9,1.15
						c-13.15,3.11-24.23,12.27-31.21,25.81c-7.51,14.58-9.36,32.25-5.23,49.75c4.13,17.5,13.7,32.47,26.95,42.14
						c12.29,8.98,26.27,12.22,39.45,9.11c13.15-3.11,24.23-12.28,31.21-25.81c7.51-14.58,9.36-32.25,5.23-49.74l0,0
						c-4.13-17.5-13.7-32.47-26.95-42.14C1733.04,1662.33,1722.81,1658.83,1712.72,1658.83z"/>
				</g>
			</g>
			<g class="st5">
				<g>
					<g>
						<g>
							<path class="st4" d="M1883.14,1679.05c-4.33-18.31-11.06-35.3-19.64-50.67c1.88,11.76,2.33,24.09,1.11,36.7
								c-6.62,68.76-59.67,119.91-118.49,114.25c-58.82-5.66-101.14-65.99-94.52-134.75c4.2-43.64,27.11-80.15,58.32-99.59
								c-2.68,0.45-5.35,0.98-8.02,1.61c-78.43,18.54-124.45,107.89-102.78,199.57c21.67,91.68,102.81,150.98,181.25,132.45
								C1858.79,1860.09,1904.8,1770.74,1883.14,1679.05z"/>
						</g>
					</g>
				</g>
			</g>
			<g class="st15">
				<g>
					<path class="st0" d="M2834.72,1511.4c0,0-91.63,273.9-341.34,220.03c0,0,37.6,37.33,104.26,46.98
						c147.73,21.39,271.8-115.39,238.06-262.88C2835.38,1514.16,2835.06,1512.78,2834.72,1511.4z"/>
				</g>
			</g>
			<g class="st15">
				<g>
					
						<ellipse transform="matrix(0.9946 -0.1033 0.1033 0.9946 -124.188 245.3467)" class="st0" cx="2306.5" cy="1321.59" rx="129.04" ry="111.02"/>
				</g>
			</g>
			<g class="st15">
				<g>
					<ellipse class="st0" cx="2085.88" cy="1461.68" rx="44.39" ry="38.19"/>
				</g>
			</g>
		</g>
	</g>
</g>
</svg>
